<svg xmlns="http://www.w3.org/2000/svg" viewBox="0 0 107.93 127.75"><defs><style>.cls-1{isolation:isolate}.cls-2{fill:#b6b6b6}.cls-3{fill:#cacaca}.cls-4{fill:#d7d7d7}.cls-5{opacity:.07}.cls-11,.cls-5{mix-blend-mode:multiply}.cls-6{fill:#717171}.cls-7{fill:#868686}.cls-8{fill:#8f8f8f}.cls-9{fill:#fcfcfc}.cls-10{fill:#909090}.cls-11{opacity:.12}.cls-12{fill:#828282}.cls-13{fill:#757575}.cls-14{fill:#a7a7a7}.cls-15{fill:#b0b0b0}.cls-16{fill:#8e8e8e}.cls-17{fill:#a3a3a3}.cls-18{fill:#fff}</style></defs><title>awesome-artist</title><g class="cls-1"><g id="Layer_2" data-name="Layer 2"><g id="Layer_1-2" data-name="Layer 1"><path class="cls-2" d="M107.93 39.93v53.4a7.71 7.71 0 0 1-3.86 6.68l-46.25 26.7a7.7 7.7 0 0 1-7.71 0l-21.72-12.53L3.86 100A7.71 7.71 0 0 1 0 93.33v-53.4a7.71 7.71 0 0 1 3.86-6.68l46.25-26.7a7.7 7.7 0 0 1 7.71 0l17.81 10.28 28.44 16.42a7.73 7.73 0 0 1 3.86 6.68z"/><path class="cls-3" d="M107.93 34.47V88a7.71 7.71 0 0 1-3.86 6.68L57.82 121.4a7.7 7.7 0 0 1-7.71 0l-16-9.25-5.72-3.31-4.67-2.7-6.16-3.56-13.7-7.93A7.71 7.71 0 0 1 0 88V34.47a7.72 7.72 0 0 1 3.86-6.69L50.11 1a7.65 7.65 0 0 1 7.71 0l17.81 10.33 20.76 12 6.16 3.56 1.47.85a7.76 7.76 0 0 1 3.86 6.69z"/><path class="cls-4" d="M96.44 23.53l-78.88 79.08-13.7-7.91A7.71 7.71 0 0 1 0 88v-.6l75.67-75.86zm11.49 11.08v3.56l-73.82 74-5.72-3.3-4.67-2.69 78.88-79.09 1.47.85a7.73 7.73 0 0 1 3.86 6.67z"/><path class="cls-2" d="M95.21 34.38L56.67 12.13a5.38 5.38 0 0 0-5.41 0L12.72 34.38A5.41 5.41 0 0 0 10 39.06v44.51a5.41 5.41 0 0 0 2.7 4.68l38.56 22.25a5.38 5.38 0 0 0 5.41 0l38.54-22.25a5.43 5.43 0 0 0 2.7-4.68V39.06a5.43 5.43 0 0 0-2.7-4.68zm-4 45.13a4.84 4.84 0 0 1-2.39 4.16l-32.41 18.7A4.78 4.78 0 0 1 54 103a4.86 4.86 0 0 1-2.41-.64L36.2 93.5 30 90l-10.84-6.33a4.84 4.84 0 0 1-2.4-4.16V43.12A4.81 4.81 0 0 1 19.17 39l32.39-18.7a4.86 4.86 0 0 1 2.44-.68 4.78 4.78 0 0 1 2.39.64L88.77 39a4.85 4.85 0 0 1 2.39 4.16z"/><path class="cls-5" d="M88.57 37.53v59.09a3.75 3.75 0 0 1-3.74 3.74H23.1a3.76 3.76 0 0 1-3.75-3.74V37.53a2.76 2.76 0 0 1 2.75-2.75h63.73a2.75 2.75 0 0 1 2.74 2.75z"/><path class="cls-6" d="M88.57 33.84v59.08a3.76 3.76 0 0 1-3.74 3.75H23.1a3.76 3.76 0 0 1-3.75-3.75V33.84a2.76 2.76 0 0 1 2.75-2.75h63.73a2.75 2.75 0 0 1 2.74 2.75z"/><path class="cls-7" d="M88.57 30.71v58.08a3.75 3.75 0 0 1-3.74 3.75H23.1a3.76 3.76 0 0 1-3.75-3.75V30.71A3.76 3.76 0 0 1 23.1 27h61.73a3.76 3.76 0 0 1 3.74 3.71z"/><path class="cls-8" d="M88.57 30.71v.71l-61 61.12H23.1a3.76 3.76 0 0 1-3.75-3.75V68l40.94-41h24.54a3.76 3.76 0 0 1 3.74 3.71zm0 10.44v16.42L53.69 92.54H37.31l51.26-51.39z"/><path class="cls-9" d="M88.57 30.71v2.48H19.35v-2.48A3.76 3.76 0 0 1 23.1 27h61.73a3.76 3.76 0 0 1 3.74 3.71z"/><path d="M51.92 63.37L42.6 54a1.76 1.76 0 0 1 0-2.49l9.32-9.34a1.77 1.77 0 0 1 2.49 0l9.32 9.34a1.76 1.76 0 0 1 0 2.49l-9.32 9.34a1.76 1.76 0 0 1-2.49.03z" class="cls-5"/><path class="cls-10" d="M51.92 60.39l-9.32-9.34c-.69-.69-.69-4.78 0-5.47l9.32-7.85a1.76 1.76 0 0 1 2.49 0l9.32 7.85c.69.69.69 4.78 0 5.47l-9.32 9.34a1.76 1.76 0 0 1-2.49 0z"/><ellipse class="cls-11" cx="37.48" cy="73.89" rx="10.68" ry="10.7"/><ellipse class="cls-12" cx="37.48" cy="71.22" rx="10.68" ry="10.7"/><path class="cls-11" d="M65.91 59.68a1.53 1.53 0 0 1 2.65 0l7.06 12.26 7.07 12.26a1.53 1.53 0 0 1-1.32 2.29H53.1a1.53 1.53 0 0 1-1.33-2.29l7.07-12.26z"/><path class="cls-13" d="M65.91 57.09a1.52 1.52 0 0 1 2.65 0l7.06 9.66L82.69 79c.59 1-.15 4.89-1.32 4.89H53.1c-1.18 0-1.91-3.87-1.33-4.89l7.07-12.26z"/><path class="cls-14" d="M63.73 48.07l-9.33 9.34a1.74 1.74 0 0 1-2.49 0l-9.31-9.34a1.74 1.74 0 0 1 0-2.48l9.31-9.35a1.76 1.76 0 0 1 2.49 0l9.33 9.35a1.76 1.76 0 0 1 0 2.48z"/><path class="cls-15" d="M48.16 68.56a10.68 10.68 0 1 1-10.69-10.7 10.63 10.63 0 0 1 10.69 10.7z"/><path class="cls-16" d="M81.37 81.31H53.1A1.54 1.54 0 0 1 51.77 79l1.31-2.28 5.76-10L65 56.06l.89-1.55a1.55 1.55 0 0 1 1.41-.76 1.53 1.53 0 0 1 1.24.76L71 58.75l1 1.63 3.67 6.37L77 69.16l1.89 3.28 3.8 6.56a1.53 1.53 0 0 1-1.32 2.31z"/><path class="cls-17" d="M77 69.16L64.89 81.31H53.1A1.54 1.54 0 0 1 51.77 79l1.31-2.28L71 58.75l1 1.63 3.67 6.37z"/><path class="cls-18" d="M36.65 60.4c-3.18.69-4.32 1.83-5 5a.59.59 0 0 1-1.15 0c-.69-3.18-1.82-4.32-5-5a.59.59 0 0 1 0-1.15c3.18-.68 4.32-1.82 5-5a.59.59 0 0 1 1.15 0c.69 3.19 1.82 4.32 5 5a.59.59 0 0 1 0 1.15z"/><circle class="cls-18" cx="28.84" cy="73.24" r="2.53"/></g></g></g></svg>