<svg xmlns="http://www.w3.org/2000/svg" viewBox="0 0 107.93 127.55"><defs><style>.cls-1{isolation:isolate}.cls-2{fill:#b6b6b6}.cls-3{fill:#cacaca}.cls-4{fill:#d7d7d7}.cls-5{fill:#fff}.cls-6{opacity:.07;mix-blend-mode:multiply}.cls-7{fill:#6e6e6e}.cls-8{fill:#999}.cls-9{fill:#a0a0a0}.cls-10{fill:#919191}.cls-11{fill:#e6e6e6}.cls-12{fill:#a6a6a6}.cls-13{fill:#bbb}.cls-14{fill:#8e8e8e}.cls-15{fill:#cdcdcd}.cls-16{fill:#878787}.cls-17{fill:#c1c1c1}</style></defs><title>data-designer</title><g class="cls-1"><g id="Layer_2" data-name="Layer 2"><g id="Layer_1-2" data-name="Layer 1"><path class="cls-2" d="M107.93 39.73v53.41a7.69 7.69 0 0 1-3.86 6.67l-46.25 26.71a7.7 7.7 0 0 1-7.71 0L28.39 114 3.86 99.81A7.69 7.69 0 0 1 0 93.14V39.73a7.71 7.71 0 0 1 3.86-6.68l46.25-26.7a7.7 7.7 0 0 1 7.71 0l17.81 10.28 28.44 16.42a7.76 7.76 0 0 1 3.86 6.68z"/><path class="cls-3" d="M107.93 34.41v53.41a7.71 7.71 0 0 1-3.86 6.68l-46.25 26.7a7.7 7.7 0 0 1-7.71 0l-16-9.23-5.72-3.31-4.67-2.66-6.16-3.56-13.7-7.94A7.71 7.71 0 0 1 0 87.82V34.41a7.69 7.69 0 0 1 3.86-6.67L50.11 1a7.65 7.65 0 0 1 7.71 0l17.81 10.32 20.76 12 6.16 3.56 1.47.85a7.73 7.73 0 0 1 3.86 6.67z"/><path class="cls-4" d="M96.44 23.33l-78.88 79.08-13.7-7.91A7.71 7.71 0 0 1 0 87.82v-.62l75.67-75.86zm11.49 11.08V38l-73.82 74-5.72-3.31-4.67-2.69 78.88-79.11 1.47.85a7.73 7.73 0 0 1 3.86 6.67z"/><path class="cls-2" d="M95.21 34.18L56.67 11.93a5.44 5.44 0 0 0-5.41 0L12.72 34.18A5.43 5.43 0 0 0 10 38.86v44.51a5.41 5.41 0 0 0 2.7 4.68l38.56 22.25a5.38 5.38 0 0 0 5.41 0l38.54-22.25a5.43 5.43 0 0 0 2.7-4.68V38.86a5.45 5.45 0 0 0-2.7-4.68zm-4 45.13a4.82 4.82 0 0 1-2.39 4.16l-32.41 18.7a4.79 4.79 0 0 1-2.39.65 4.87 4.87 0 0 1-2.41-.65L36.2 93.3 30 89.75l-10.84-6.28a4.82 4.82 0 0 1-2.4-4.16V42.93a4.79 4.79 0 0 1 2.41-4.16l32.39-18.7a4.76 4.76 0 0 1 2.44-.65 4.69 4.69 0 0 1 2.39.65l32.41 18.7A4.61 4.61 0 0 1 90.19 40a4.86 4.86 0 0 1 1 2.9z"/><path class="cls-5" d="M22.15 77.91c-3 .66-4.12 1.74-4.76 4.78a.56.56 0 0 1-1.1 0c-.66-3-1.74-4.12-4.78-4.76a.56.56 0 0 1 0-1.1c3-.66 4.12-1.74 4.76-4.78a.56.56 0 0 1 1.1 0c.66 3 1.74 4.12 4.78 4.76a.56.56 0 0 1 0 1.1z"/><circle class="cls-5" cx="16.83" cy="63.98" r="2.02"/><circle class="cls-5" cx="90.57" cy="75.21" r="2.58"/><g class="cls-6"><path d="M73.13 73.86l-1.72-1.72a4.69 4.69 0 0 0-6.63 0L62 74.94a.71.71 0 0 1-1 0l-.64-.63a.74.74 0 0 1 0-1l3.3-3.3.07-.06a5.46 5.46 0 0 0 .66-.57 7.16 7.16 0 0 0 .71-.84 4.42 4.42 0 0 0 .76-1.26 10.15 10.15 0 0 0-.11-8.28.72.72 0 0 1 .82-1 11.1 11.1 0 0 0 8.62-1.64 2.17 2.17 0 0 0 .34-3.36L62.31 39.81a2.17 2.17 0 0 0-3.31.29 11.07 11.07 0 0 0-1.35 9.9.72.72 0 0 1-.89.93 10.1 10.1 0 0 0-6 0 4.68 4.68 0 0 0-2.53 1.3l-4.51 4.47a.72.72 0 0 1-1 0l-.64-.64a.72.72 0 0 1 0-1l2.81-2.81a4.69 4.69 0 0 0 0-6.63l-3.32-3.32-5-5-1.73-1.73L33.26 34a4.69 4.69 0 0 0-6.63 0L15 45.6a4.67 4.67 0 0 0 0 6.63l1.67 1.68 1.64 1.64 8.3 8.3a4.69 4.69 0 0 0 6.63 0L36.06 61a.74.74 0 0 1 1 0l.63.63a.72.72 0 0 1 0 1l-6.09 6.19a4.7 4.7 0 0 0 0 6.64.72.72 0 0 1-.28 1.19l-3.86 1.29c-3.15 1-3.32 3.32-1.66 5l1.32 1.32a.74.74 0 0 1 .15.8 2.35 2.35 0 0 0 3 3 .74.74 0 0 1 .8.15l1.32 1.32c1.66 1.66 3.93 1.49 5-1.66L38.7 84a.72.72 0 0 1 1.19-.28l1.66 1.67a4.7 4.7 0 0 0 6.64 0l6.12-6.13a.72.72 0 0 1 1 0l.64.64a.72.72 0 0 1 0 1l-4 4a3 3 0 0 0 0 4.17l1.24 1.23 3.32 3.32 5 5 3.27 3.38a4.67 4.67 0 0 0 6.63 0L83 90.38a4.69 4.69 0 0 0 0-6.63zm.04-44.65a2.17 2.17 0 0 0 1.26 2.63 15.66 15.66 0 0 1 9.1 9.53 2.16 2.16 0 0 0 2.66 1.36 2.18 2.18 0 0 0 1.43-2.81A20 20 0 0 0 76 27.79a2.16 2.16 0 0 0-2.83 1.42zM76 19.5a2.15 2.15 0 0 0 1.34 2.65A25.85 25.85 0 0 1 93.2 38.46a2.17 2.17 0 0 0 2.68 1.41 2.18 2.18 0 0 0 1.46-2.77 30.21 30.21 0 0 0-18.49-19A2.17 2.17 0 0 0 76 19.5z"/><path d="M78.48 11.23a2.16 2.16 0 0 0 1.35 2.66A34.5 34.5 0 0 1 101.46 36a2.17 2.17 0 0 0 2.68 1.4 2.16 2.16 0 0 0 1.45-2.76A38.81 38.81 0 0 0 81.29 9.8a2.18 2.18 0 0 0-2.81 1.43zm-7.9 36.86l3.53-5.89a2.35 2.35 0 1 0-1-1l-5.89 3.53z"/></g><path class="cls-7" transform="rotate(-45 49.85 64.701)" d="M46.33 47.1h7.04v35.19h-7.04z"/><path class="cls-8" d="M83 79.62a4.7 4.7 0 0 1 0 6.64L71.41 97.87a4.69 4.69 0 0 1-6.63 0L53.17 86.26a4.68 4.68 0 0 1 0-6.64L64.78 68a4.69 4.69 0 0 1 6.63 0zM44.87 41.48a4.69 4.69 0 0 1 0 6.63L33.26 59.72a4.69 4.69 0 0 1-6.63 0L15 48.11a4.68 4.68 0 0 1 0-6.64l11.61-11.6a4.68 4.68 0 0 1 6.63 0z"/><path class="cls-9" d="M37.41 70.5l-9.95 3.32c-3.15 1.05-3.32 3.32-1.66 5l1.69 1.69a2.35 2.35 0 0 0 3.25 3.25l1.69 1.69c1.66 1.66 3.93 1.49 5-1.66 1.66-5 3.31-10 3.31-10z"/><path class="cls-10" d="M40.72 73.82s-1.65 5-3.31 10c-1 3.15-3.32 3.32-5 1.66l-1.69-1.69a2.35 2.35 0 0 1-3.25-3.25c-.64-.65-1.23-1.23-1.7-1.69-1.25-1.26-1.46-2.87-.11-4L32.89 82a1.19 1.19 0 0 0 2-.43l3.71-9.92z"/><path class="cls-11" d="M65.05 64.39a4.56 4.56 0 0 0 .76-1.26c1.82-3.78.67-9-3.13-12.83-3.52-3.52-8.28-4.76-12-3.49a4.55 4.55 0 0 0-2.53 1.3L31.6 64.7a4.69 4.69 0 0 0 0 6.63l9.95 10a4.7 4.7 0 0 0 6.64 0l15.46-15.51a5.74 5.74 0 0 0 .69-.59 9.29 9.29 0 0 0 .71-.84z"/><path class="cls-9" d="M61.8 35.18a1.56 1.56 0 0 0-2.33.14 11.35 11.35 0 0 0 1.16 15.28 11.33 11.33 0 0 0 15.27 1.15 1.56 1.56 0 0 0 .1-2.33z"/><path class="cls-12" d="M75.91 51.75a11.35 11.35 0 0 1-15.28-1.15 11.58 11.58 0 0 1-3.44-10.08 12 12 0 0 0 3.44 6.6 11.31 11.31 0 0 0 14.68 1.57l.73.73a1.56 1.56 0 0 1-.13 2.33z"/><path class="cls-10" d="M75.91 51.75a11.35 11.35 0 0 1-15.28-1.15 11.58 11.58 0 0 1-3.44-10.08 12 12 0 0 0 3.44 6.6 11.31 11.31 0 0 0 14.68 1.57l.73.73a1.56 1.56 0 0 1-.13 2.33z"/><path class="cls-7" d="M67.26 40.65l8.3-4.98-4.98 8.29-3.32-3.31z"/><path class="cls-7" d="M76.87 34.36a2.34 2.34 0 1 1-3.32 0 2.33 2.33 0 0 1 3.32 0"/><path class="cls-13" transform="rotate(-45.02 63.946 78.794)" d="M51.04 76.45h25.8v4.69h-25.8z"/><path class="cls-13" transform="rotate(-45 34.091 48.939)" d="M21.19 46.59h25.8v4.69h-25.8z"/><path class="cls-13" transform="rotate(-45.02 72.24 87.094)" d="M59.34 84.74h25.8v4.69h-25.8z"/><path class="cls-13" transform="rotate(-45.03 25.796 40.645)" d="M12.9 38.3h25.8v4.69H12.9z"/><path class="cls-14" d="M44.87 48.11L33.26 59.72a4.69 4.69 0 0 1-6.63 0L15 48.11a4.7 4.7 0 0 1-.23-6.38l13.79 13.8a1.68 1.68 0 0 0 2.37 0l14-14a4.68 4.68 0 0 1-.06 6.58z"/><path class="cls-15" d="M65.81 63.13a5 5 0 0 1-.76 1.26 9.29 9.29 0 0 1-.71.84 5.74 5.74 0 0 1-.69.59L48.19 81.28a4.69 4.69 0 0 1-6.63 0l-10-10a4.71 4.71 0 0 1-.66-5.81l12.42 12.42a2.18 2.18 0 0 0 3.1 0l20.13-20.13a9.33 9.33 0 0 1-.74 5.37z"/><path class="cls-14" d="M83 86.26L71.41 97.87a4.69 4.69 0 0 1-6.63 0L53.16 86.26a4.69 4.69 0 0 1-.23-6.38l13.79 13.79a1.65 1.65 0 0 0 2.36 0l14-14a4.69 4.69 0 0 1-.08 6.59z"/><path class="cls-16" d="M73.17 25.76a2.17 2.17 0 0 0 1.26 2.63 15.66 15.66 0 0 1 9.1 9.53 2.15 2.15 0 0 0 2.66 1.36 2.17 2.17 0 0 0 1.43-2.8A20.06 20.06 0 0 0 76 24.34a2.16 2.16 0 0 0-2.83 1.42zM76 16.05a2.17 2.17 0 0 0 1.34 2.66A25.81 25.81 0 0 1 93.2 35a2.17 2.17 0 0 0 2.68 1.41 2.18 2.18 0 0 0 1.46-2.76 30.21 30.21 0 0 0-18.49-19 2.16 2.16 0 0 0-2.85 1.4z"/><path class="cls-17" d="M78.48 7.78a2.15 2.15 0 0 0 1.35 2.66 34.5 34.5 0 0 1 21.63 22.13 2.16 2.16 0 0 0 2.68 1.4 2.18 2.18 0 0 0 1.45-2.77 38.81 38.81 0 0 0-24.3-24.85 2.18 2.18 0 0 0-2.81 1.43z"/><circle class="cls-16" cx="69.32" cy="19.23" r="1.96"/></g></g></g></svg>