<svg id="Layer_1" xmlns="http://www.w3.org/2000/svg" viewBox="0 0 243 150"><style>.st0{fill:#8474cc}.st1{fill:#919191}.st2{fill:#fff;stroke:#000;stroke-width:1.1676;stroke-miterlimit:10}.st3{fill:#715ec7}.st4{fill:#d6d6d6}.st5{fill:#7d68db}.st6{fill:#a08df7}.st7{fill:#b4a5f7}.st8{fill:#e8e8e8}.st9{fill:#9483e6}.st10{fill:#e8bb17}.st11{fill:#ffd82c}.st12{fill:#fff12c}.st13{fill:#fabf28}.st14{fill:#6554b3}.st15{fill:#ffc3a3}.st16{fill:#b1a3ff}.st17{fill:#a3e0ff}.st18{fill:#e8be20}.st19{fill:#ebc228}.st20{fill:#fff;stroke:#000;stroke-width:1.2444;stroke-miterlimit:10}.st21{fill:#47d4ff}.st22{fill:#fff}.st23{fill:none;stroke:#29c3f2;stroke-width:2.4;stroke-miterlimit:10}.st24{fill:#443b69}.st25{fill:#584c87}.st26{fill:#ffd059}.st27{fill:#dceaf7}.st28{fill:#f7fbff}.st29{fill:#ffa640}.st30{fill:url(#SVGID_1_)}.st31{fill:url(#SVGID_2_)}.st32{fill:#ff8f40}.st33{fill:#28bfed}.st34{fill:#85f7ff}.st35{fill:url(#SVGID_3_)}.st36{fill:url(#SVGID_4_)}.st37{fill:#fff;stroke:#000;stroke-width:.5;stroke-miterlimit:10}.st38{enable-background:new}.st39{fill:#d4d4d4}.st40{stroke-width:1.4127}.st40,.st41,.st42{fill:#fff;stroke:#000;stroke-miterlimit:10}.st41{stroke-width:.8515}.st42{stroke-width:.5676}.st43{fill:#52b1ff}.st44{fill:#fff;stroke:#ebebeb;stroke-width:2;stroke-miterlimit:10}.st45{fill:#ffa359}.st46{fill:#d9e9f7}.st47{fill:#c2c2c2}.st48{fill:#81ff70}.st49{fill:#55e841}.st50{fill:#e7f78d}.st51{fill:#f78df5}.st52{fill:#ffa3c5}.st53{fill:#71ff5e}.st54{fill:#afffa4}.st55{fill:#89ff79}.st56{fill:#61f54d}.st57{fill:#d19638}.st58{fill:#edb65c}.st59{fill:#4dde3a}.st60{fill:#65ed54}.st61{fill:#c78a36}.st62{fill:#93ff54}.st63{fill:#8af04f}.st64{fill:#57eb00}.st65{fill:#d6953a}.st66{fill:#eda540}.st67{fill:#e2deff}.st68{fill:#cbc2ff}.st69{opacity:.12}.st70{fill:#f06000}.st71{fill:#f70}.st72{fill:#ff9100}.st73{fill:#a1812c}.st74{fill:#3c3c3b}.st75,.st76{fill:none;stroke:#3c3c3b;stroke-width:6;stroke-miterlimit:10}.st76{stroke:#9d8fff}.st77{fill:#c5bdff}.st78{fill:#ffb300}.st79{clip-path:url(#SVGID_6_);fill:none;stroke-width:10}.st79,.st80,.st81,.st82{stroke:#ffb300;stroke-miterlimit:10}.st80{fill:#fff;stroke-linecap:round;stroke-linejoin:round;stroke-width:14}.st81,.st82{stroke-width:10}.st81{clip-path:url(#SVGID_8_);fill:none}.st82{fill:#fff}.st83{fill:#ffe23d}.st84{fill:#324d57}.st85{fill:none;stroke:#293f47;stroke-width:3;stroke-miterlimit:10}.st86{fill:#263b42}.st87{fill:#4f4f4f}</style><path class="st3" d="M163.5 126.4c.1 1.5-1.1 2.8-2.6 2.8l-121 5.4c-1.5.1-2.8-1.1-2.8-2.6l-3.4-75.6 126.4-5.6 3.4 75.6z"/><path class="st4" d="M160.1 50.8L33.7 56.4l-.3-6.9c-.1-1.5 1.1-2.8 2.6-2.8l121-5.4c1.5-.1 2.8 1.1 2.8 2.6l.3 6.9zm0 0l-.3-6.9z"/><path class="st5" d="M60.7 65.5l-18.2.8c-.6 0-1.2-.5-1.2-1.1l-.1-1.2c0-.6.5-1.2 1.1-1.2l18.2-.8c.6 0 1.2.5 1.2 1.1l.1 1.2c0 .6-.5 1.2-1.1 1.2zM96 63.9l-29 1.3c-.6 0-1.2-.5-1.2-1.1l-.1-1.2c0-.6.5-1.2 1.1-1.2l29-1.3c.6 0 1.2.5 1.2 1.1l.1 1.2c0 .6-.5 1.2-1.1 1.2zm-20.6 9l-32.6 1.4c-.6 0-1.2-.5-1.2-1.1l-.1-1.2c0-.6.5-1.2 1.1-1.2l32.6-1.4c.6 0 1.2.5 1.2 1.1l.1 1.2c0 .6-.5 1.1-1.1 1.2zM46 82.2l-2.8.1c-.6 0-1.2-.5-1.2-1.1l-.1-1.2c0-.6.5-1.2 1.1-1.2l2.8-.1c.6 0 1.2.5 1.2 1.1l.1 1.2c.1.6-.4 1.2-1.1 1.2zm8.4-.4l-2.8.2c-.6 0-1.2-.5-1.2-1.1l-.1-1.2c0-.6.5-1.2 1.1-1.2l2.8-.1c.6 0 1.2.5 1.2 1.1l.1 1.2c.1.5-.4 1.1-1.1 1.1zm8.5-.3l-2.9.1c-.6 0-1.2-.5-1.2-1.1l-.1-1.2c0-.6.5-1.2 1.1-1.2l2.8-.1c.6 0 1.2.5 1.2 1.1l.1 1.2c.1.6-.4 1.1-1 1.2zm5.6 7.7l-25 1.1c-.6 0-1.2-.5-1.2-1.1l-.1-1.2c0-.6.5-1.2 1.1-1.2l25-1.1c.6 0 1.2.5 1.2 1.1l.1 1.2c.1.7-.4 1.2-1.1 1.2zm13.8-.6l-7.6.4c-.6 0-1.2-.5-1.2-1.1l-.1-1.2c0-.6.5-1.2 1.1-1.2l7.7-.3c.6 0 1.2.5 1.2 1.1l.1 1.2c0 .5-.5 1.1-1.2 1.1zM50.9 98l-7.1.3c-.6 0-1.2-.5-1.2-1.1V96c0-.6.5-1.2 1.1-1.2l7.1-.3c.6 0 1.2.5 1.2 1.1l.1 1.2c0 .7-.5 1.2-1.2 1.2zm17.1-.7l-10.5.5c-.6 0-1.2-.5-1.2-1.1l-.1-1.2c0-.6.5-1.2 1.1-1.2l10.5-.5c.6 0 1.2.5 1.2 1.1l.1 1.2c.1.6-.4 1.2-1.1 1.2zm-4.1 8.2l-19.7.9c-.6 0-1.2-.5-1.2-1.1V104c0-.6.5-1.2 1.1-1.2l19.7-.9c.6 0 1.2.5 1.2 1.1l.1 1.2c0 .7-.5 1.3-1.2 1.3z"/><path class="st0" d="M183.5 40.9v75.6c0 1.5-1.2 2.7-2.7 2.7H59.6c-1.5 0-2.7-1.2-2.7-2.7V40.9h126.6z"/><path class="st6" d="M183.5 40.9v75.6c0 1.5-1.2 2.7-2.7 2.7h-60.5V40.9h63.2z"/><path class="st16" d="M125.2 47.1h4.3v4.2h-4.3zm5.4 0h4.3v4.2h-4.3zm5.5 0h4.3v4.2h-4.3zm5.5 0h4.3v4.2h-4.3zm5.4 0h4.3v4.2H147zm5.5 0h4.3v4.2h-4.3zm5.5 0h4.3v4.2H158zm5.4 0h4.3v4.2h-4.3zm5.5 0h4.3v4.2h-4.3zm5.4 0h4.3v4.2h-4.3zm-49.1 5.4h4.3v4.2h-4.3zm5.4 0h4.3v4.2h-4.3zm5.5 0h4.3v4.2h-4.3zm5.5 0h4.3v4.2h-4.3z"/><path class="st67" d="M147 52.5h4.3v4.2H147z"/><path class="st16" d="M152.5 52.5h4.3v4.2h-4.3zm5.5 0h4.3v4.2H158zm5.4 0h4.3v4.2h-4.3zm5.5 0h4.3v4.2h-4.3zm5.4 0h4.3v4.2h-4.3zM125.2 58h4.3v4.2h-4.3zm5.4 0h4.3v4.2h-4.3z"/><path class="st67" d="M136.1 58h4.3v4.2h-4.3z"/><path class="st16" d="M141.6 58h4.3v4.2h-4.3z"/><path class="st68" d="M147 58h4.3v4.2H147z"/><path class="st67" d="M152.5 58h4.3v4.2h-4.3z"/><path class="st16" d="M158 58h4.3v4.2H158zm5.4 0h4.3v4.2h-4.3zm5.5 0h4.3v4.2h-4.3zm5.4 0h4.3v4.2h-4.3zm-49.1 5.4h4.3v4.2h-4.3zm5.4 0h4.3v4.2h-4.3z"/><path class="st68" d="M136.1 63.4h4.3v4.2h-4.3z"/><path class="st67" d="M141.6 63.4h4.3v4.2h-4.3z"/><path class="st68" d="M147 63.4h4.3v4.2H147zm5.5 0h4.3v4.2h-4.3zm5.5 0h4.3v4.2H158zm5.4 0h4.3v4.2h-4.3zm5.5 0h4.3v4.2h-4.3z"/><path class="st16" d="M174.3 63.4h4.3v4.2h-4.3zm-49.1 5.4h4.3V73h-4.3z"/><path class="st67" d="M130.6 68.8h4.3V73h-4.3z"/><path class="st68" d="M136.1 68.8h4.3V73h-4.3zm5.5 0h4.3V73h-4.3zm5.4 0h4.3V73H147zm5.5 0h4.3V73h-4.3zm5.5 0h4.3V73H158zm5.4 0h4.3V73h-4.3zm5.5 0h4.3V73h-4.3zm5.4 0h4.3V73h-4.3z"/><path class="st16" d="M125.2 74.3h4.3v4.2h-4.3z"/><path class="st68" d="M130.6 74.3h4.3v4.2h-4.3zm5.5 0h4.3v4.2h-4.3zm5.5 0h4.3v4.2h-4.3zm5.4 0h4.3v4.2H147zm5.5 0h4.3v4.2h-4.3zm5.5 0h4.3v4.2H158zm5.4 0h4.3v4.2h-4.3zm5.5 0h4.3v4.2h-4.3zm5.4 0h4.3v4.2h-4.3zm-49.1 5.4h4.3v4.2h-4.3zm5.4 0h4.3v4.2h-4.3zm5.5 0h4.3v4.2h-4.3zm5.5 0h4.3v4.2h-4.3zm5.4 0h4.3v4.2H147zm5.5 0h4.3v4.2h-4.3zm5.5 0h4.3v4.2H158zm5.4 0h4.3v4.2h-4.3zm5.5 0h4.3v4.2h-4.3zm5.4 0h4.3v4.2h-4.3z"/><path class="st7" d="M130.4 93.8h-4c-.7 0-1.3-.6-1.3-1.3v-4c0-.7.6-1.3 1.3-1.3h4c.7 0 1.3.6 1.3 1.3v4c0 .8-.5 1.3-1.3 1.3zm46.9 0h-4c-.7 0-1.3-.6-1.3-1.3v-4c0-.7.6-1.3 1.3-1.3h4c.7 0 1.3.6 1.3 1.3v4c0 .8-.6 1.3-1.3 1.3zm-9.2 0h-4c-.7 0-1.3-.6-1.3-1.3v-4c0-.7.6-1.3 1.3-1.3h4c.7 0 1.3.6 1.3 1.3v4c0 .8-.5 1.3-1.3 1.3z"/><path class="st8" d="M183.5 34v6.9H56.9V34c0-1.5 1.2-2.7 2.7-2.7h121.1c1.5 0 2.8 1.2 2.8 2.7z"/><path class="st15" d="M83.4 51.2H65.2c-.6 0-1.2-.5-1.2-1.2v-1.2c0-.6.5-1.2 1.2-1.2h18.2c.6 0 1.2.5 1.2 1.2V50c0 .6-.5 1.2-1.2 1.2zm28.2 0H89.7c-.6 0-1.2-.5-1.2-1.2v-1.2c0-.6.5-1.2 1.2-1.2h21.9c.6 0 1.2.5 1.2 1.2V50c-.1.6-.6 1.2-1.2 1.2zm-13.8 8H65.2c-.6 0-1.2-.5-1.2-1.2v-1.2c0-.6.5-1.2 1.2-1.2h32.6c.6 0 1.2.5 1.2 1.2V58c0 .7-.5 1.2-1.2 1.2z"/><path class="st16" d="M68.1 67.2h-2.8c-.6 0-1.2-.5-1.2-1.2v-1.2c0-.6.5-1.2 1.2-1.2h2.8c.6 0 1.2.5 1.2 1.2V66c-.1.7-.6 1.2-1.2 1.2zm8.4 0h-2.8c-.6 0-1.2-.5-1.2-1.2v-1.2c0-.6.5-1.2 1.2-1.2h2.8c.6 0 1.2.5 1.2 1.2V66c0 .7-.5 1.2-1.2 1.2zm8.4 0h-2.8c-.6 0-1.2-.5-1.2-1.2v-1.2c0-.6.5-1.2 1.2-1.2h2.8c.6 0 1.2.5 1.2 1.2V66c0 .7-.5 1.2-1.2 1.2z"/><path class="st15" d="M90.2 75.2h-25c-.6 0-1.2-.5-1.2-1.2v-1.2c0-.6.5-1.2 1.2-1.2h25c.6 0 1.2.5 1.2 1.2V74c0 .7-.5 1.2-1.2 1.2z"/><path class="st17" d="M104.1 75.2h-7.7c-.6 0-1.2-.5-1.2-1.2v-1.2c0-.6.5-1.2 1.2-1.2h7.7c.6 0 1.2.5 1.2 1.2V74c0 .7-.6 1.2-1.2 1.2z"/><path class="st15" d="M72.3 83.2h-7.1c-.6 0-1.2-.5-1.2-1.2v-1.2c0-.6.5-1.2 1.2-1.2h7.1c.6 0 1.2.5 1.2 1.2V82c0 .7-.6 1.2-1.2 1.2z"/><path class="st17" d="M89.4 83.2H78.9c-.6 0-1.2-.5-1.2-1.2v-1.2c0-.6.5-1.2 1.2-1.2h10.5c.6 0 1.2.5 1.2 1.2V82c0 .7-.6 1.2-1.2 1.2z"/><path class="st15" d="M84.9 91.3H65.2c-.6 0-1.2-.5-1.2-1.2v-1.2c0-.6.5-1.2 1.2-1.2h19.7c.6 0 1.2.5 1.2 1.2v1.2c0 .6-.5 1.2-1.2 1.2z"/><path class="st10" d="M197.5 129.5c-12.8 12.8-32.5 14.3-46.9 4.5-1.9-1.3-3.7-2.8-5.4-4.5-1.5-1.5-2.9-3.1-4-4.8-10.3-14.5-8.9-37.5 4-50.4 12.9-12.9 33.1-14.3 47.5-4 1.7 1.2 3.3 2.5 4.8 4 1.7 1.7 3.2 3.5 4.5 5.4 9.8 14.4 8.3 37-4.5 49.8z"/><path class="st11" d="M197.5 124.8c-12.8 12.8-32.5 14.3-46.9 4.5-1.9-1.3-3.7-2.8-5.4-4.5-1.5-1.5-2.9-3.1-4-4.8-10.3-14.5-8.9-34.6 4-47.6 12.9-12.9 33.1-14.3 47.5-4 1.7 1.2 3.3 2.5 4.8 4 1.7 1.7 3.2 3.5 4.5 5.4 9.8 14.5 8.3 34.3-4.5 47z"/><path class="st12" d="M202 77.9l-48.6 48.7-2.8 2.8c-1.9-1.3-3.7-2.8-5.4-4.5-1.5-1.5-2.9-3.1-4-4.8l1.9-1.9 49.6-49.6c1.7 1.2 3.3 2.5 4.8 4 1.7 1.6 3.2 3.4 4.5 5.3z"/><path class="st13" d="M193 77c-12-12-31.3-12-43.3 0-12 12-12 31.3 0 43.3 12 12 31.3 12 43.3 0 12-11.9 12-31.3 0-43.3zm-4.3 39c-9.6 9.6-25.1 9.6-34.7 0-9.6-9.6-9.6-25.1 0-34.7 9.6-9.6 25.1-9.6 34.7 0 9.6 9.6 9.6 25.1 0 34.7z"/><path class="st69" d="M156.7 96l21.1-21c.8-.9 2.3-.4 2.3.8v13.6c0 .7.6 1.3 1.3 1.3h8.5v5.2c0 .3-.1.6-.3.8l-20.9 25.5c-.8.9-2.3.4-2.3-.8v-18.2c0-.7-.6-1.3-1.3-1.3H158c-.7 0-1.3-.6-1.3-1.3V96z"/><path class="st70" d="M156.5 94l21.3-22.5c.8-.9 2.3-.4 2.3.8v14.6c0 .7.6 1.3 1.3 1.3h8.6v4.2c0 .3-.1.6-.3.8l-21 25.5c-.8.9-2.3.4-2.3-.8v-17.7c0-.7-.6-1.3-1.3-1.3h-7.3c-.7 0-1.3-.6-1.3-1.3V94z"/><path class="st71" d="M189.7 88.9l-10.5 12.8-10.5 12.8c-.6.7-1.7.5-2.1-.2-.1-.2-.2-.4-.2-.6V95.6c0-.2-.1-.3-.3-.3h-8.2c-1.2 0-1.9-1.4-1.1-2.3l21-25.6c.8-.9 2.3-.4 2.3.8v18.1c0 .2.1.3.3.3h8.2c1.2 0 1.9 1.4 1.1 2.3z"/><path class="st69" d="M183.5 107.2l16.1-4.7c.6-.3 1.2.4.9 1l-3.7 6.7c-.2.4-.1.8.3 1l4.2 2.3-1.4 2.6c-.1.1-.2.3-.4.3l-17.2 7c-.6.3-1.2-.4-.9-1l4.9-9c.2-.4.1-.8-.3-1l-3.6-1.9c-.4-.2-.5-.6-.3-1l1.4-2.3z"/><path class="st70" d="M184 106.2l16.7-5.4c.6-.3 1.2.4.9 1l-3.9 7.3c-.2.4-.1.8.3 1l4.3 2.3-1.1 2.1c-.1.1-.2.3-.4.3l-17.3 7c-.6.3-1.2-.4-.9-1l4.8-8.8c.2-.4.1-.8-.3-1l-3.7-2c-.4-.2-.5-.6-.3-1l.9-1.8z"/><path class="st71" d="M202.7 99.6s-.1.1 0 0l-4.9 9.1c0 .1 0 .2.1.2l4.1 2.2c.6.3.5 1.2-.1 1.4l-17.3 7.1c-.6.2-1.1-.3-1-.8 0-.1 0-.1.1-.2l4.9-9c0-.1 0-.2-.1-.2l-4.1-2.2c-.6-.3-.5-1.2.1-1.4l7.9-3.2 9.4-3.8c.5-.4 1.1.2.9.8z"/><path class="st69" d="M148.2 117.5l2.5-14c0-.6.8-.8 1.1-.3l3.7 5.3c.2.3.6.3.9.2l3.3-2.3 1.4 2c.1.1.1.3.1.4l-1.2 15.7c0 .6-.8.8-1.1.3l-5-7.1c-.2-.3-.6-.3-.9-.2l-2.8 2c-.3.2-.7.1-.9-.2l-1.1-1.8z"/><path class="st70" d="M147.5 116.8l2.2-14.7c0-.6.8-.8 1.1-.3l4 5.7c.2.3.6.3.9.2l3.4-2.4 1.1 1.6c.1.1.1.3.1.4L159 123c0 .6-.8.8-1.1.3l-4.8-6.9c-.2-.3-.6-.3-.9-.2l-2.9 2c-.3.2-.7.1-.9-.2l-.9-1.2z"/><path class="st71" d="M159.2 105.7l-.9 12.1v.1l-.3 3.6c0 .1 0 .1-.1.2-.1.2-.2.3-.3.3-.2.1-.6.1-.7-.2l-1-1.5-3.9-5.6c0-.1-.1-.1-.2 0l-3.2 2.2c-.2.1-.4.2-.6.1-.3-.1-.5-.4-.5-.7l.6-8 .6-7.8c.1-.6.8-.8 1.1-.3l2.6 3.7 2.4 3.4c.1.1.2.1.2 0l3.2-2.2c.4-.3 1 .1 1 .6z"/><path class="st72" d="M159.2 105.7l-.9 12.1v.1l-.3 3.6c0 .1 0 .1-.1.2l-.3.3c-.2.1-.6.1-.7-.2l-1-1.5-3.9-5.6c0-.1-.1-.1-.2 0l-3.2 2.2c-.2.1-.4.2-.6.1-.3-.1-.5-.4-.5-.7l.6-8 4.3-4.3 2.4 3.4c.1.1.2.1.2 0l3.2-2.2c.4-.4 1 0 1 .5zm30.5-16.8l-10.5 12.8-12.6 12.6c-.1-.2-.2-.4-.2-.6V95.8l13.7-13.7v4.2c0 .2.1.3.3.3h8.2c1.2 0 1.9 1.4 1.1 2.3z"/><path class="st12" d="M193.6 52.7l-5.8-5.8c-.6-.6-.6-1.6 0-2.2l5.8-5.8c.6-.6 1.6-.6 2.2 0l5.8 5.8c.6.6.6 1.6 0 2.2l-5.8 5.8c-.6.6-1.6.6-2.2 0z"/><circle class="st12" cx="207" cy="59.5" r="4.3"/><circle class="st12" cx="216.4" cy="31.8" r="2.7"/></svg>