<svg id="Layer_1" xmlns="http://www.w3.org/2000/svg" viewBox="0 0 140 70"><style>.st0{fill:#213542}.st1{opacity:.5}</style><path class="st0" d="M31.4 35.8c.9.9 1.3 1.9 1.3 3.1s-.4 2.2-1.3 3.2c-.9.8-1.9 1.2-3.1 1.2-1.2 0-2.2-.4-3.2-1.2L10 28.6v10.2c0 1.2-.4 2.2-1.3 3.1-.8.8-1.9 1.3-3.2 1.3-1.2 0-2.3-.4-3.1-1.3-.9-.8-1.3-1.9-1.3-3.1V6c0-1.2.4-2.2 1.3-3.1.9-.9 1.9-1.3 3.1-1.3 1.3 0 2.3.4 3.2 1.3.9.9 1.3 2 1.3 3.1v10.2L25.2 3c.9-.9 2-1.3 3.2-1.3 1.2 0 2.2.4 3.1 1.3.9.9 1.3 1.9 1.3 3.1 0 1.2-.4 2.2-1.3 3.1L16.2 22.4l15.2 13.4zM52.7 1.6c2.1 0 4.1.4 6 1.1 1.9.8 3.6 1.8 5 3.2s2.6 3 3.4 4.8c.9 1.9 1.3 3.9 1.3 6v21.9c0 1.1-.4 2.1-1.2 2.9-.8.8-1.8 1.3-3 1.3s-2.2-.4-3-1.1c-.8-.8-1.3-1.7-1.3-2.9v-7.6H45.5v7.4c0 1.1-.4 2.1-1.3 3-.9.8-1.9 1.3-3 1.3s-2.1-.4-3-1.2c-.9-.8-1.3-1.7-1.3-2.9V17.4c0-2.2.5-4.2 1.3-6.1.8-1.9 1.9-3.6 3.3-5s3.1-2.6 5-3.4c1.8-.9 3.9-1.3 6.2-1.3zM60 17.4c0-1-.2-1.9-.6-2.8-.4-.9-.9-1.7-1.6-2.3-.7-.7-1.5-1.2-2.3-1.6-.9-.4-1.9-.6-2.9-.6s-1.9.2-2.7.6c-.9.4-1.6.9-2.3 1.5-.6.6-1.2 1.3-1.6 2.2-.4.9-.6 1.8-.6 2.7V23H60v-5.6zM88.2 1.8c2.1 0 4.1.4 6 1.1 1.9.8 3.6 1.8 5 3.2 1.4 1.4 2.6 3 3.4 4.8.9 1.9 1.3 3.9 1.3 6v21.9c0 1.1-.4 2.1-1.2 2.9-.8.8-1.8 1.3-3 1.3s-2.2-.4-3-1.1-1.3-1.7-1.3-2.9V17.5c0-1-.2-1.9-.6-2.8-.4-.9-.9-1.7-1.6-2.3-.7-.7-1.5-1.2-2.3-1.6s-1.9-.6-2.9-.6-1.9.2-2.7.6c-.9.4-1.6.9-2.3 1.5-.7.6-1.2 1.3-1.6 2.2-.4.9-.6 1.8-.6 2.7v21.7c0 1.1-.4 2.1-1.3 3-.9.8-1.9 1.3-3 1.3s-2.1-.4-3-1.2-1.3-1.7-1.3-2.9V17.5c0-2.2.5-4.2 1.3-6.1.8-1.9 1.9-3.6 3.3-5s3.1-2.6 5-3.4c2.1-.8 4.2-1.2 6.4-1.2zm35.4 41.4c-2.2 0-4.2-.4-6.1-1.1-1.9-.8-3.6-1.8-5-3.2-1.4-1.4-2.6-3-3.4-4.8-.9-1.9-1.3-3.9-1.3-6V17.4c0-2.2.4-4.2 1.2-6.1.8-1.9 1.9-3.6 3.3-5s3.1-2.6 5-3.4c1.9-.8 4-1.2 6.4-1.2 2.1 0 4.1.4 6 1.1 1.9.8 3.6 1.8 5 3.2s2.6 3 3.4 4.8c.9 1.9 1.3 3.9 1.3 6v10.6c0 2.2-.4 4.2-1.2 6.1-.8 1.9-1.9 3.6-3.3 5s-3.1 2.6-5 3.4c-1.9.9-4 1.3-6.3 1.3zm7.3-25.8c0-1-.2-1.9-.6-2.8-.4-.9-.9-1.7-1.6-2.3-.7-.7-1.5-1.2-2.3-1.6-.9-.4-1.9-.6-2.9-.6s-2 .2-2.9.6c-.9.4-1.6.9-2.3 1.5-.7.6-1.2 1.3-1.6 2.2-.4.9-.6 1.8-.6 2.7v10.4c0 1 .1 1.9.5 2.8.4.9.9 1.7 1.6 2.3.7.6 1.5 1.2 2.3 1.6.9.4 1.9.6 3 .6 1 0 1.9-.2 2.7-.6.9-.4 1.6-.9 2.3-1.5.7-.6 1.2-1.3 1.6-2.2.4-.9.6-1.8.6-2.7l.2-10.4z"/><g class="st1"><path class="st0" d="M2.8 58.6c-.2.2-.3.3-.5.3-.3 0-.6-.3-.6-.6 0-.1 0-.2.1-.3.6-.9 1.6-1.6 3.3-1.6 2.3 0 3.5 1.3 3.5 3.4v5.4c0 .3-.3.6-.6.6s-.6-.3-.6-.6v-.7c-.5.9-1.6 1.4-2.8 1.4-2.1 0-3.4-1-3.4-2.8 0-1.7 1.3-2.8 3.4-2.8h2.8v-.5c0-1.3-.9-2.2-2.3-2.2-1.1 0-1.7.3-2.3 1zm4.6 3.6v-.8H4.6c-1.3 0-2.2.5-2.2 1.7 0 1 .7 1.7 2.2 1.7 1.5-.1 2.8-.9 2.8-2.6zm11.3-2.3v5.3c0 .4-.3.6-.6.6s-.6-.3-.6-.6v-5c0-1.6-.5-2.6-2.4-2.6-2 0-2.6 1.2-2.6 2.8v4.9c0 .4-.3.6-.6.6-.4 0-.6-.3-.6-.6v-8c0-.4.3-.6.6-.6.4 0 .6.3.6.6v.6c.4-.7 1.3-1.4 2.6-1.4 3-.1 3.6 1.7 3.6 3.4zm4.7 5.3l-3.3-7.8c0-.1-.1-.1-.1-.3 0-.4.3-.6.6-.6s.5.2.6.4l2.8 6.8 2.8-6.8c.1-.2.2-.4.6-.4s.6.3.6.6c0 .1 0 .2-.1.3L24 66.6c-.8 1.9-1.8 2.9-3.7 2.9-.3 0-.6-.3-.6-.6s.3-.6.6-.6c1.8.1 2.3-1.1 3.1-3.1zm13.8-4.1c0 3.2-1.6 4.8-4.1 4.8-2.5 0-4.1-1.5-4.1-4.8 0-3.2 1.6-4.7 4.1-4.7 2.5 0 4.1 1.5 4.1 4.7zm-1.3 0c0-2.5-1-3.6-2.9-3.6-1.8 0-2.9 1.1-2.9 3.6s1 3.6 2.9 3.6 2.9-1.1 2.9-3.6zm11-1.2v5.3c0 .4-.3.6-.6.6-.4 0-.6-.3-.6-.6v-5c0-1.6-.5-2.6-2.4-2.6-2 0-2.6 1.2-2.6 2.8v4.9c0 .4-.3.6-.6.6-.4 0-.6-.3-.6-.6v-8c0-.4.3-.6.6-.6.4 0 .6.3.6.6v.6c.4-.7 1.3-1.4 2.6-1.4 3-.1 3.6 1.7 3.6 3.4zm6-3.5c3.2 0 3.8 2.5 3.8 3.8 0 .6 0 1.3-.8 1.3h-5.8c0 2 1.1 3.2 3 3.2 1.1 0 1.8-.4 2.4-.8.1-.1.2-.1.4-.1.3 0 .6.3.6.6 0 .2-.1.3-.2.5-.3.3-1.3 1.1-3.1 1.1-2.6 0-4.3-1.4-4.3-4.8 0-3.1 1.5-4.8 4-4.8zm0 1.1c-1.7 0-2.7 1.1-2.8 2.9h5.3c0-1.4-.4-2.9-2.5-2.9zm14.3-1.1c1.8 0 2.7.9 3 1.4.1.1.1.2.1.4 0 .3-.3.6-.6.6-.2 0-.3-.1-.5-.2-.3-.3-.8-.9-2.1-.9-1.8 0-2.8 1.2-2.8 3.6 0 2.5 1 3.6 2.8 3.6 1.1 0 1.8-.5 2.3-.8.1-.1.2-.1.4-.1.3 0 .6.3.6.6 0 .2-.1.3-.3.5-.4.4-1.4 1.1-3 1.1-2.5 0-4.1-1.5-4.1-4.8.1-3.5 1.7-5 4.2-5zm6.4 2.2c-.2.2-.3.3-.5.3-.3 0-.6-.3-.6-.6 0-.1 0-.2.1-.3.6-.9 1.6-1.6 3.3-1.6 2.3 0 3.5 1.3 3.5 3.4v5.4c0 .3-.3.6-.6.6s-.6-.3-.6-.6v-.7c-.5.9-1.6 1.4-2.8 1.4-2.1 0-3.4-1-3.4-2.8 0-1.7 1.3-2.8 3.5-2.8h2.8v-.5c0-1.3-.9-2.2-2.3-2.2-1.1 0-1.8.3-2.4 1zm4.6 3.6v-.8h-2.8c-1.3 0-2.2.5-2.2 1.7 0 1 .7 1.7 2.2 1.7 1.5-.1 2.8-.9 2.8-2.6zm11.3-2.3v5.3c0 .4-.3.6-.6.6-.4 0-.6-.3-.6-.6v-5c0-1.6-.5-2.6-2.4-2.6-2 0-2.6 1.2-2.6 2.8v4.9c0 .4-.3.6-.6.6-.4 0-.6-.3-.6-.6v-8c0-.4.3-.6.6-.6.4 0 .6.3.6.6v.6c.4-.7 1.3-1.4 2.6-1.4 3-.1 3.6 1.7 3.6 3.4zm21.1 0v5.3c0 .4-.3.6-.6.6-.4 0-.6-.3-.6-.6v-5c0-1.6-.6-2.6-2.5-2.6-1.7 0-2.5.9-2.5 2.4v5.3c0 .4-.3.6-.6.6-.4 0-.6-.3-.6-.6v-5c0-1.6-.5-2.6-2.4-2.6-1.8 0-2.4 1.1-2.4 2.8v4.9c0 .4-.3.6-.6.6-.4 0-.6-.3-.6-.6v-8c0-.4.3-.6.6-.6.4 0 .6.3.6.6v.6c.3-.7 1.3-1.4 2.6-1.4 1.6 0 2.7.6 3.1 1.4.5-.8 1.4-1.4 2.9-1.4 2.9-.2 3.6 1.6 3.6 3.3zm3.5-1.3c-.2.2-.3.3-.5.3-.3 0-.6-.3-.6-.6 0-.1 0-.2.1-.3.6-.9 1.6-1.6 3.3-1.6 2.3 0 3.5 1.3 3.5 3.4v5.4c0 .3-.3.6-.6.6s-.6-.3-.6-.6v-.7c-.5.9-1.6 1.4-2.8 1.4-2.1 0-3.4-1-3.4-2.8 0-1.7 1.3-2.8 3.5-2.8h2.8v-.5c0-1.3-.9-2.2-2.3-2.2-1.1 0-1.8.3-2.4 1zm4.6 3.6v-.8H116c-1.3 0-2.2.5-2.2 1.7 0 1 .7 1.7 2.2 1.7 1.4-.1 2.7-.9 2.7-2.6zm9.8 3.3L125 61l-1.2 1v3.2c0 .4-.3.6-.6.6-.4 0-.6-.3-.6-.6v-13c0-.4.3-.6.6-.6.4 0 .6.3.6.6v8.3l4.7-3.8c.2-.1.3-.2.4-.2.4 0 .6.3.6.6 0 .2-.1.4-.3.5l-3.2 2.6 3.5 4.5c.1.1.1.3.1.4 0 .4-.3.6-.6.6-.2.1-.4 0-.5-.2zm6.6-9.1c3.2 0 3.8 2.5 3.8 3.8 0 .6 0 1.3-.8 1.3h-5.8c0 2 1.1 3.2 3 3.2 1.1 0 1.8-.4 2.4-.8.1-.1.2-.1.4-.1.3 0 .6.3.6.6 0 .2-.1.3-.2.5-.3.3-1.3 1.1-3.1 1.1-2.6 0-4.3-1.4-4.3-4.8 0-3.1 1.5-4.8 4-4.8zm0 1.1c-1.7 0-2.7 1.1-2.8 2.9h5.3c.1-1.4-.4-2.9-2.5-2.9z"/></g></svg>