<svg id="Layer_1" xmlns="http://www.w3.org/2000/svg" viewBox="0 0 243 150"><style>.st0{fill:#8474cc}.st1{fill:#919191}.st2{fill:#fff;stroke:#000;stroke-width:1.1676;stroke-miterlimit:10}.st3{fill:#715ec7}.st4{fill:#d6d6d6}.st5{fill:#7d68db}.st6{fill:#a08df7}.st7{fill:#b4a5f7}.st8{fill:#e8e8e8}.st9{fill:#9483e6}.st10{fill:#e8bb17}.st11{fill:#ffd82c}.st12{fill:#fff12c}.st13{fill:#fabf28}.st14{fill:#6554b3}.st15{fill:#ffc3a3}.st16{fill:#b1a3ff}.st17{fill:#a3e0ff}.st18{fill:#e8be20}.st19{fill:#ebc228}.st20{fill:#fff;stroke:#000;stroke-width:1.2444;stroke-miterlimit:10}.st21{fill:#47d4ff}.st22{fill:#fff}.st23{fill:none;stroke:#29c3f2;stroke-width:2.4;stroke-miterlimit:10}.st24{fill:#443b69}.st25{fill:#584c87}.st26{fill:#ffd059}.st27{fill:#dceaf7}.st28{fill:#f7fbff}.st29{fill:#ffa640}.st30{fill:url(#SVGID_1_)}.st31{fill:url(#SVGID_2_)}.st32{fill:#ff8f40}.st33{fill:#28bfed}.st34{fill:#85f7ff}.st35{fill:url(#SVGID_3_)}.st36{fill:url(#SVGID_4_)}.st37{fill:#fff;stroke:#000;stroke-width:.5;stroke-miterlimit:10}.st38{enable-background:new}.st39{fill:#d4d4d4}.st40{stroke-width:1.4127}.st40,.st41,.st42{fill:#fff;stroke:#000;stroke-miterlimit:10}.st41{stroke-width:.8515}.st42{stroke-width:.5676}.st43{fill:#52b1ff}.st44{fill:#fff;stroke:#ebebeb;stroke-width:2;stroke-miterlimit:10}.st45{fill:#ffa359}.st46{fill:#d9e9f7}.st47{fill:#c2c2c2}.st48{fill:#81ff70}.st49{fill:#55e841}.st50{fill:#e7f78d}.st51{fill:#f78df5}.st52{fill:#ffa3c5}.st53{fill:#71ff5e}.st54{fill:#afffa4}.st55{fill:#89ff79}.st56{fill:#61f54d}.st57{fill:#d19638}.st58{fill:#edb65c}.st59{fill:#4dde3a}.st60{fill:#65ed54}.st61{fill:#c78a36}.st62{fill:#93ff54}.st63{fill:#8af04f}.st64{fill:#57eb00}.st65{fill:#d6953a}.st66{fill:#eda540}.st67{fill:#e2deff}.st68{fill:#cbc2ff}.st69{opacity:.12}.st70{fill:#f06000}.st71{fill:#f70}.st72{fill:#ff9100}.st73{fill:#a1812c}.st74{fill:#3c3c3b}.st75,.st76{fill:none;stroke:#3c3c3b;stroke-width:6;stroke-miterlimit:10}.st76{stroke:#9d8fff}.st77{fill:#c5bdff}.st78{fill:#ffb300}.st79{clip-path:url(#SVGID_6_);fill:none;stroke-width:10}.st79,.st80,.st81,.st82{stroke:#ffb300;stroke-miterlimit:10}.st80{fill:#fff;stroke-linecap:round;stroke-linejoin:round;stroke-width:14}.st81,.st82{stroke-width:10}.st81{clip-path:url(#SVGID_8_);fill:none}.st82{fill:#fff}.st83{fill:#ffe23d}.st84{fill:#324d57}.st85{fill:none;stroke:#293f47;stroke-width:3;stroke-miterlimit:10}.st86{fill:#263b42}.st87{fill:#4f4f4f}</style><path class="st0" d="M187.6 34.9V128c0 1.3-1.1 2.4-2.4 2.4H42.5c-1.3 0-2.4-1.1-2.4-2.4V34.9c0-1.3 1.1-2.4 2.4-2.4h142.7c1.3 0 2.4 1.1 2.4 2.4z"/><path class="st6" d="M185.2 32.5c1.3 0 2.4 1.1 2.4 2.4V128c0 1.3-1.1 2.4-2.4 2.4h-59.3v-96l59.3-1.9z"/><path class="st8" d="M187.6 34.9v4.3H40.1v-4.3c0-1.3 1.1-2.4 2.4-2.4h142.7c1.3 0 2.4 1.1 2.4 2.4z"/><path class="st6" d="M64.4 96.3h5.3c.7 0 1.3-.6 1.3-1.3v-1.1h-3.9V69.3h33.5V59.2c0-.7-.6-1.3-1.3-1.3H64.4c-.7 0-1.3.6-1.3 1.3V95c0 .7.6 1.3 1.3 1.3z"/><path class="st48" d="M102.6 78H67.1v-8.7h35.5c.7 0 1.3.6 1.3 1.3v6.1c0 .7-.6 1.3-1.3 1.3z"/><path class="st49" d="M86.1 93.9h-19V78h20.3v14.6c0 .7-.6 1.3-1.3 1.3z"/><path class="st50" d="M98.7 84.9H87.4V78h11.2c.7 0 1.3.6 1.3 1.3v4.3c0 .7-.5 1.3-1.2 1.3z"/><path class="st51" d="M98.7 91.7H87.4v-6.9h11.2c.7 0 1.3.6 1.3 1.3v4.3c0 .7-.5 1.3-1.2 1.3z"/><path class="st16" d="M75.7 64.9h-8c-.4 0-.6-.3-.6-.6v-1.1c0-.4.3-.6.6-.6h8c.4 0 .6.3.6.6v1.1c.1.3-.2.6-.6.6zm9 0h-5.6c-.4 0-.6-.3-.6-.6v-1.1c0-.4.3-.6.6-.6h5.6c.4 0 .6.3.6.6v1.1c0 .3-.3.6-.6.6z"/><circle class="st48" cx="47.4" cy="46.4" r="2"/><circle class="st51" cx="47.4" cy="54.6" r="2"/><circle class="st50" cx="47.4" cy="62.7" r="2"/><circle class="st17" cx="47.4" cy="70.8" r="2"/><circle class="st15" cx="47.4" cy="79" r="2"/><circle class="st52" cx="47.4" cy="87.1" r="2"/><circle class="st16" cx="47.4" cy="95.2" r="2"/><path class="st84" d="M198.9 53.2v63.5c0 1.7-1.4 3.1-3.2 3.1h-97c-1.7 0-3.1-1.4-3.1-3.1V53.2c0-1.7 1.4-3.1 3.1-3.1h97.2c1.6-.1 3 1.3 3 3.1z"/><path class="st85" d="M147.2 119.8V50"/><path class="st8" d="M198.9 53.2v3.4H95.5v-3.4c0-1.7 1.4-3.1 3.1-3.1h97.1c1.8-.1 3.2 1.3 3.2 3.1z"/><path class="st12" d="M213.1 62.5l-4.3-4.3c-.5-.5-.5-1.2 0-1.6l4.3-4.3c.5-.5 1.2-.5 1.6 0l4.3 4.3c.5.5.5 1.2 0 1.6l-4.3 4.3c-.4.5-1.1.5-1.6 0z"/><circle class="st12" cx="221.4" cy="49.2" r="2.7"/><circle class="st12" cx="211.2" cy="42.4" r="1.9"/><path class="st22" d="M109.7 91.5h-5.5c-.9 0-1.6-.7-1.6-1.6V64c0-.9.7-1.6 1.6-1.6h5.5c.9 0 1.6.7 1.6 1.6v25.9c0 .9-.7 1.6-1.6 1.6zm80.5 14.2h-5.5c-.9 0-1.6-.7-1.6-1.6V78.3c0-.9.7-1.6 1.6-1.6h5.5c.9 0 1.6.7 1.6 1.6v25.9c0 .8-.7 1.5-1.6 1.5z"/><circle class="st86" cx="133.1" cy="81.5" r="6"/><circle class="st22" cx="130.8" cy="75.4" r="6.6"/></svg>