<svg xmlns="http://www.w3.org/2000/svg" viewBox="0 0 107.93 127.75"><defs><style>.cls-1{isolation:isolate}.cls-2{fill:#b6b6b6}.cls-3{fill:#cacaca}.cls-4{fill:#d7d7d7}.cls-5{fill:#fff}.cls-6{opacity:.07;mix-blend-mode:multiply}.cls-7{fill:#828282}.cls-8{fill:#989898}.cls-9{fill:#a6a6a6}</style></defs><title>magical-maestro</title><g class="cls-1"><g id="Layer_2" data-name="Layer 2"><g id="Layer_1-2" data-name="Layer 1"><path class="cls-2" d="M107.93 39.93v53.4a7.71 7.71 0 0 1-3.86 6.68l-46.25 26.7a7.7 7.7 0 0 1-7.71 0l-21.72-12.53L3.86 100A7.71 7.71 0 0 1 0 93.33v-53.4a7.71 7.71 0 0 1 3.86-6.68l46.25-26.7a7.7 7.7 0 0 1 7.71 0l17.81 10.28 28.44 16.42a7.73 7.73 0 0 1 3.86 6.68z"/><path class="cls-3" d="M107.93 34.47V88a7.71 7.71 0 0 1-3.86 6.68L57.82 121.4a7.7 7.7 0 0 1-7.71 0l-16-9.25-5.72-3.31-4.67-2.7-6.16-3.56-13.7-7.93A7.71 7.71 0 0 1 0 88V34.47a7.72 7.72 0 0 1 3.86-6.69L50.11 1a7.65 7.65 0 0 1 7.71 0l17.81 10.33 20.76 12 6.16 3.56 1.47.85a7.76 7.76 0 0 1 3.86 6.69z"/><path class="cls-4" d="M96.44 23.53l-78.88 79.08-13.7-7.91A7.71 7.71 0 0 1 0 88v-.6l75.67-75.86zm11.49 11.08v3.56l-73.82 74-5.72-3.3-4.67-2.69 78.88-79.09 1.47.85a7.73 7.73 0 0 1 3.86 6.67z"/><path class="cls-2" d="M95.21 34.38L56.67 12.13a5.38 5.38 0 0 0-5.41 0L12.72 34.38A5.41 5.41 0 0 0 10 39.06v44.51a5.41 5.41 0 0 0 2.7 4.68l38.56 22.25a5.38 5.38 0 0 0 5.41 0l38.54-22.25a5.43 5.43 0 0 0 2.7-4.68V39.06a5.43 5.43 0 0 0-2.7-4.68zm-4 45.13a4.84 4.84 0 0 1-2.39 4.16l-32.41 18.7A4.78 4.78 0 0 1 54 103a4.86 4.86 0 0 1-2.41-.64L36.2 93.5 30 90l-10.84-6.33a4.84 4.84 0 0 1-2.4-4.16V43.12A4.81 4.81 0 0 1 19.17 39l32.39-18.7a4.86 4.86 0 0 1 2.44-.68 4.78 4.78 0 0 1 2.39.64L88.77 39a4.85 4.85 0 0 1 2.39 4.16z"/><path class="cls-5" d="M88.93 37c-3.19.69-4.32 1.82-5 5a.59.59 0 0 1-1.15 0c-.69-3.18-1.82-4.32-5-5a.59.59 0 0 1 0-1.15c3.18-.69 4.32-1.82 5-5a.59.59 0 0 1 1.15 0c.68 3.18 1.82 4.32 5 5a.59.59 0 0 1 0 1.15z"/><circle class="cls-5" cx="72.64" cy="30.15" r="2.07"/><g class="cls-6"><path d="M72.34 61.25V50.06a2 2 0 0 0-2-2H41.85a2 2 0 0 0-2 2v29.7a26.3 26.3 0 0 0-6.3-.52 6.67 6.67 0 0 0-6.74 6.07 6.51 6.51 0 0 0 6.49 7c3.54 0 9.35-5.75 9.51-9.36v-21.7h26.57v18.51a26.3 26.3 0 0 0-6.3-.52 6.67 6.67 0 0 0-6.74 6.07 6.51 6.51 0 0 0 6.49 7c3.54 0 9.35-5.75 9.51-9.36z"/><path d="M22.91 50.15v13.52a18.74 18.74 0 0 1 4.59-.38 4.87 4.87 0 0 1 4.93 4.43 4.76 4.76 0 0 1-4.74 5.08c-2.59 0-6.83-4.2-7-6.84V42a1.46 1.46 0 0 1 1.47-1.46h13.53A1.46 1.46 0 0 1 37.16 42v6.71a1.46 1.46 0 0 1-1.47 1.46zm63.28 9.1a1 1 0 0 0-1 1V73a17.32 17.32 0 0 0-4.19-.31 4.48 4.48 0 0 0-4.53 4.08 4.36 4.36 0 0 0 4.36 4.66c2.41 0 6.39-4 6.39-6.39v-14.8a1 1 0 0 0-1.03-.99z"/></g><path class="cls-7" d="M72.34 57.52V46.33a2 2 0 0 0-2-2H41.85a2 2 0 0 0-2 2V76a25.8 25.8 0 0 0-6.3-.52c-3.47 0-6.52.32-6.74 3.79-.25 3.79 2.75 9.22 6.49 9.22 3.54 0 9.35-5.74 9.51-9.35V57.52h26.57V76a25.8 25.8 0 0 0-6.3-.52c-3.46 0-6.52.32-6.74 3.79-.25 3.79 2.75 9.22 6.49 9.22 3.54 0 9.35-5.74 9.51-9.35z"/><path class="cls-7" d="M22.91 46.42v13.52a18.74 18.74 0 0 1 4.59-.38c2.54 0 4.77-.38 4.93 2.15.18 2.77-2 7.35-4.74 7.35s-6.83-4.19-7-6.83v-24a1.47 1.47 0 0 1 1.47-1.47h13.53a1.47 1.47 0 0 1 1.47 1.47V45a1.47 1.47 0 0 1-1.47 1.46zm63.28 9.1a1 1 0 0 0-1 1v12.8A17.32 17.32 0 0 0 81 69c-2.33 0-4.38-.53-4.53 1.79-.17 2.55 1.84 7 4.36 7s6.39-4 6.39-6.39V56.51a1 1 0 0 0-1.03-.99z"/><path class="cls-8" d="M72.34 43v32.88a1 1 0 0 1 0 .3 5.65 5.65 0 0 1-.47 1.62A15.42 15.42 0 0 1 65 84.69a5.82 5.82 0 0 1-1.63.5 4.38 4.38 0 0 1-.5 0 6.74 6.74 0 0 1-1.68-.19 6.5 6.5 0 0 1-4.85-6.74 6.67 6.67 0 0 1 6.75-6.07 25.41 25.41 0 0 1 6.3.53V54.23H42.81v21.65a5.34 5.34 0 0 1-.51 1.92 11 11 0 0 1-1 1.83 17 17 0 0 1-4 4 11.42 11.42 0 0 1-1.85 1.07 5.26 5.26 0 0 1-2.14.55 6.51 6.51 0 0 1-6.49-7 6.67 6.67 0 0 1 6.75-6.07 25.29 25.29 0 0 1 6.29.53V43a2 2 0 0 1 2-2h28.48a2 2 0 0 1 2 2z"/><path class="cls-9" d="M72.34 43v4.66l-6.52 6.54h-23v21.68a5.34 5.34 0 0 1-.51 1.92l-6.86 6.88a5.26 5.26 0 0 1-2.14.55 6.51 6.51 0 0 1-6.49-7 6.67 6.67 0 0 1 6.75-6.07 25.29 25.29 0 0 1 6.29.53V47.45L46.25 41h24.09a2 2 0 0 1 2 2zm0 14.43v16.41L61.19 85a6.5 6.5 0 0 1-4.85-6.74 6.67 6.67 0 0 1 6.75-6.07 25.41 25.41 0 0 1 6.3.53V60.39z"/><path class="cls-8" d="M37.15 35v6.71a1.46 1.46 0 0 1-1.46 1.46H22.91v13.47a19.24 19.24 0 0 1 4.59-.38 5 5 0 0 1 2 .42 4.45 4.45 0 0 1 .75.39 4.61 4.61 0 0 1 2.18 3.62 4.75 4.75 0 0 1-4.73 5.07 6.93 6.93 0 0 1-4-2.09 6.16 6.16 0 0 1-.58-.56 7.5 7.5 0 0 1-2.33-4.17V35a1.47 1.47 0 0 1 1.47-1.47h13.43A1.46 1.46 0 0 1 37.15 35z"/><path class="cls-9" d="M27.7 65.77a6.93 6.93 0 0 1-4-2.09l6.59-6.6a4.61 4.61 0 0 1 2.18 3.62 4.75 4.75 0 0 1-4.77 5.07z"/><path class="cls-8" d="M87.19 53.21V68c0 2.4-4 6.39-6.39 6.39a4.39 4.39 0 0 1-3.65-2 4.1 4.1 0 0 1-.39-.75 4.34 4.34 0 0 1 3.7-6 4.36 4.36 0 0 1 .51 0h1.79c.36 0 .71 0 1.06.07a8.14 8.14 0 0 1 1.37.24V53.21a1 1 0 0 1 2 0z"/><path class="cls-9" d="M80.46 65.7l-4 4a4.45 4.45 0 0 1 4-4zm6.73-12.49V59l-2 2v-7.79a1 1 0 0 1 2 0z"/><circle class="cls-6" cx="78.28" cy="88.42" r="3.06"/><circle class="cls-7" cx="78.28" cy="86.85" r="3.06"/><circle class="cls-8" cx="78.28" cy="85.71" r="3.06"/><circle class="cls-6" cx="45.56" cy="34.5" r="1.98"/><circle class="cls-7" cx="45.56" cy="33.33" r="1.98"/><circle class="cls-8" cx="45.56" cy="32.59" r="1.98"/></g></g></g></svg>