<svg id="Layer_1" xmlns="http://www.w3.org/2000/svg" viewBox="0 0 243 150"><style>.st0{fill:#8474cc}.st1{fill:#919191}.st2{fill:#fff;stroke:#000;stroke-width:1.1676;stroke-miterlimit:10}.st3{fill:#715ec7}.st4{fill:#d6d6d6}.st5{fill:#7d68db}.st6{fill:#a08df7}.st7{fill:#b4a5f7}.st8{fill:#e8e8e8}.st9{fill:#9483e6}.st10{fill:#e8bb17}.st11{fill:#ffd82c}.st12{fill:#fff12c}.st13{fill:#fabf28}.st14{fill:#6554b3}.st15{fill:#ffc3a3}.st16{fill:#b1a3ff}.st17{fill:#a3e0ff}.st18{fill:#e8be20}.st19{fill:#ebc228}.st20{fill:#fff;stroke:#000;stroke-width:1.2444;stroke-miterlimit:10}.st21{fill:#47d4ff}.st22{fill:#fff}.st23{fill:none;stroke:#29c3f2;stroke-width:2.4;stroke-miterlimit:10}.st24{fill:#443b69}.st25{fill:#584c87}.st26{fill:#ffd059}.st27{fill:#dceaf7}.st28{fill:#f7fbff}.st29{fill:#ffa640}.st30{fill:url(#SVGID_1_)}.st31{fill:url(#SVGID_2_)}.st32{fill:#ff8f40}.st33{fill:#28bfed}.st34{fill:#85f7ff}.st35{fill:url(#SVGID_3_)}.st36{fill:url(#SVGID_4_)}.st37{fill:#fff;stroke:#000;stroke-width:.5;stroke-miterlimit:10}.st38{enable-background:new}.st39{fill:#d4d4d4}.st40{stroke-width:1.4127}.st40,.st41,.st42{fill:#fff;stroke:#000;stroke-miterlimit:10}.st41{stroke-width:.8515}.st42{stroke-width:.5676}.st43{fill:#52b1ff}.st44{fill:#fff;stroke:#ebebeb;stroke-width:2;stroke-miterlimit:10}.st45{fill:#ffa359}.st46{fill:#d9e9f7}.st47{fill:#c2c2c2}.st48{fill:#81ff70}.st49{fill:#55e841}.st50{fill:#e7f78d}.st51{fill:#f78df5}.st52{fill:#ffa3c5}.st53{fill:#71ff5e}.st54{fill:#afffa4}.st55{fill:#89ff79}.st56{fill:#61f54d}.st57{fill:#d19638}.st58{fill:#edb65c}.st59{fill:#4dde3a}.st60{fill:#65ed54}.st61{fill:#c78a36}.st62{fill:#93ff54}.st63{fill:#8af04f}.st64{fill:#57eb00}.st65{fill:#d6953a}.st66{fill:#eda540}.st67{fill:#e2deff}.st68{fill:#cbc2ff}.st69{opacity:.12}.st70{fill:#f06000}.st71{fill:#f70}.st72{fill:#ff9100}.st73{fill:#a1812c}.st74{fill:#3c3c3b}.st75,.st76{fill:none;stroke:#3c3c3b;stroke-width:6;stroke-miterlimit:10}.st76{stroke:#9d8fff}.st77{fill:#c5bdff}.st78{fill:#ffb300}.st79{clip-path:url(#SVGID_6_);fill:none;stroke-width:10}.st79,.st80,.st81,.st82{stroke:#ffb300;stroke-miterlimit:10}.st80{fill:#fff;stroke-linecap:round;stroke-linejoin:round;stroke-width:14}.st81,.st82{stroke-width:10}.st81{clip-path:url(#SVGID_8_);fill:none}.st82{fill:#fff}.st83{fill:#ffe23d}.st84{fill:#324d57}.st85{fill:none;stroke:#293f47;stroke-width:3;stroke-miterlimit:10}.st86{fill:#263b42}.st87{fill:#4f4f4f}</style><path class="st21" d="M91 45.7v77.9H25.1c-2 0-3.6-1.6-3.6-3.6V49.3c0-2 1.6-3.6 3.6-3.6H91z"/><path class="st8" d="M91 45.7v7.1H21.5v-3.5c0-2 1.6-3.6 3.6-3.6H91z"/><path class="st22" d="M58.2 110c-1.6 0-3-1.3-3-3V69.4c0-1.6 1.3-3 3-3s3 1.3 3 3V107c-.1 1.6-1.4 3-3 3zm21.9-5.9c-1.6 0-3-1.3-3-3V75.3c0-1.6 1.3-3 3-3 1.6 0 3 1.3 3 3v25.9c-.1 1.6-1.4 2.9-3 2.9zM91 94.8c-1.6 0-3-1.3-3-3v-7.2c0-1.6 1.3-3 3-3s3 1.3 3 3v7.2c0 1.6-1.3 3-3 3z"/><path class="st23" d="M69.1 123.6V52.8"/><path class="st22" d="M69.1 97.8c-1.6 0-3-1.3-3-3V81.6c0-1.6 1.3-3 3-3s3 1.3 3 3v13.2c0 1.7-1.3 3-3 3z"/><path class="st0" d="M204.3 37.9v93.6c0 2-1.6 3.6-3.6 3.6h-106c-2 0-3.6-1.6-3.6-3.6V37.9c0-2 1.6-3.6 3.6-3.6h106c1.9 0 3.6 1.6 3.6 3.6z"/><path class="st24" d="M205 84.6c-2 3.9-5.4 6.8-9.5 8.2l-3.1 1c-.7.2-1.4.1-1.9-.3-.1 0-.1-.1-.1-.1-.5-.4-.7-1.1-.6-1.8l.5-3.2c.7-4.3 3.1-8.1 6.6-10.6l1.4 1.2 3.9 3.3 2.8 2.3z"/><path class="st25" d="M202.2 82.1c-2.3 3.4-5.1 6.5-7.9 8.8l-2.5 2c-.5.4-1 .5-1.2.4-.1 0-.1-.1-.1-.1-.2-.2-.2-.7.1-1.3l1.3-3c1.5-3.5 3.8-7.1 6.5-10.3l3.8 3.5z"/><path class="st26" d="M241 40c0 .9-.3 1.8-.8 2.7-.9 1.3-1.7 2.4-2.5 3.6-1.2 1.7-2.4 3.3-3.4 4.8-7.4 10.3-12 16.1-22.5 28-1.5 1.7-3 3.4-4.5 5-.7.8-2 .9-2.9.2l-7.1-6.1c-.8-.7-1-2-.3-2.8 1.4-1.8 2.9-3.5 4.3-5.3 10.1-12.2 15.4-17.5 24.5-26.2 1.3-1.3 2.8-2.7 4.3-4.1 1-1 2.1-2 3.2-3.1 1.7-1.7 4.4-1.7 6.2-.2.9.9 1.5 2.2 1.5 3.5z"/><path class="st27" d="M211.6 79.1l-4.5 5.1c-.7.8-2 .9-2.9.2l-1.9-1.6h-.1l-4.4-3.8-.7-.6c-.8-.7-.9-2-.2-2.8 1.4-1.8 2.8-3.5 4.3-5.3l1.7 1.5.7.6L208 76l3.6 3.1z"/><path class="st28" d="M208.1 76l-5.8 6.6-4.4-3.8-.7-.6 5.8-6.6.7.6 4.4 3.8z"/><path class="st29" d="M208.5 94.7c2.1-.4 4.1 1 4.5 3.1.4 2.1-1 4.1-3.1 4.5-2.1.4-9.1 0-9.6-2.1-.3-2.1 6.1-5.1 8.2-5.5z"/><circle class="st29" cx="196.2" cy="107.5" r="2.4"/><linearGradient id="SVGID_1_" gradientUnits="userSpaceOnUse" x1="121.115" y1="87.576" x2="188.578" y2="87.576"><stop offset="0" stop-color="#ffa857"/><stop offset=".999" stop-color="#ff8c00"/></linearGradient><path class="st30" d="M123.3 64.9c-.2.3-.3.6-.2 1l2.5 14.6c0 1 .7 2.1 1.6 2.6 1 .5 2.2.6 3.2-.1.2-.2.5-.3.6-.5l.1-.1.1-.1.1-.2.5-.7L133 80l4.4-5.3 6.6-8c.4-.4 1.1-.1.9.5l-1.4 5.6-3.4 13.4-3.4 13.4-1.7 6.7-.4 1.7c-.1.6-.2 1.3 0 2.1.2.7.6 1.4 1.1 1.8 1 .9 2.5 1.4 4 .9.7-.2 1.4-.7 1.8-1.2l.2-.2.1-.1.1-.2.3-.3 17.1-21.6 10.5-13.3c.9-1.1 2.7-.3 2.4 1.2l-1.9 8.9-5.9 26.9-.4 1.7-.1.4v.3l-.1.3c-.1.9 0 1.9.4 2.8.8 1.8 2.5 3 4.3 3.2.9.1 2 0 2.9-.5.4-.2.9-.5 1.2-.8.2-.1.3-.3.5-.5l.1-.2 4.7-5 9.4-10.1.1-.1c1.6-1.8 1.3-4.7-.9-6.1-1.7-1-3.9-.6-5.2.9l-5.7 6.3c-.8.9-2.4.2-2.1-1.1l3.4-17.5 2.6-13.5 1.3-6.8.1-.4v-.6c.1-.8 0-1.7-.3-2.5-.7-1.6-2.2-2.6-3.8-2.8-.8-.1-1.7 0-2.5.4-.4.2-.7.4-1.1.7-.2.1-.3.3-.4.4l-.2.2-.1.1-1 1.4L155 85.7l-12.1 16c-.6.8-1.9.2-1.7-.8l.1-.4 3.1-13.4 3.1-13.4L149 67l.4-1.7.1-.4v-.2c0-.1 0-.3.1-.4.1-.6 0-1.3-.3-1.8-.6-1.2-1.7-1.9-2.9-2-.6-.1-1.3.1-1.8.3-.3.1-.5.3-.8.5-.2.2-.4.5-.5.5l-8.5 10.8-4.3 5.4-.9 1.1c-.4.5-1.1.3-1.2-.3l-2.7-13.5c-.2-1.1-1.8-1.4-2.4-.4zm-.7-8.5c-.5.3-1.2 0-1.3-.6l-.2-1.2c-.1-.5.2-.9.7-1 .5-.1.9.2 1 .7l.2 1.2c.1.3-.1.7-.4.9zm1.7 5.6c-.6.7-1.8.4-1.9-.5l-.3-1.5c-.1-.5.1-.9.5-1.1.6-.4 1.4 0 1.6.7l.3 1.5c.1.3 0 .7-.2.9z"/><linearGradient id="SVGID_2_" gradientUnits="userSpaceOnUse" x1="225.627" y1="45.425" x2="237.639" y2="45.425"><stop offset="0" stop-color="#ffa857"/><stop offset=".999" stop-color="#ff8c00"/></linearGradient><path class="st31" d="M237.6 46.2c-1.2 1.7-2.4 3.3-3.4 4.8l-8.6-7.2c1.3-1.3 2.8-2.7 4.3-4.1l7.7 6.5z"/><path class="st8" d="M204.3 37.9v3.5H91v-3.5c0-2 1.6-3.6 3.6-3.6h106c2 0 3.7 1.6 3.7 3.6z"/><path class="st32" d="M106.3 57.6h-7.7c-1 0-1.8-.8-1.8-1.8v-7.7c0-1 .8-1.8 1.8-1.8h7.7c1 0 1.8.8 1.8 1.8v7.7c0 1.1-.8 1.8-1.8 1.8z"/><path class="st6" d="M106.3 73.6h-7.7c-1 0-1.8-.8-1.8-1.8v-7.7c0-1 .8-1.8 1.8-1.8h7.7c1 0 1.8.8 1.8 1.8v7.7c0 1-.8 1.8-1.8 1.8zm0 16h-7.7c-1 0-1.8-.8-1.8-1.8v-7.7c0-1 .8-1.8 1.8-1.8h7.7c1 0 1.8.8 1.8 1.8v7.7c0 1-.8 1.8-1.8 1.8zm0 15.9h-7.7c-1 0-1.8-.8-1.8-1.8V96c0-1 .8-1.8 1.8-1.8h7.7c1 0 1.8.8 1.8 1.8v7.7c0 1-.8 1.8-1.8 1.8zm0 16h-7.7c-1 0-1.8-.8-1.8-1.8V112c0-1 .8-1.8 1.8-1.8h7.7c1 0 1.8.8 1.8 1.8v7.7c0 1-.8 1.8-1.8 1.8z"/><circle class="st33" cx="37.8" cy="88.2" r="10.5"/><path class="st22" d="M38.1 83.4l3.8 3.8c.6.6.6 1.5 0 2.1l-3.8 3.8c-1 1-2.6.3-2.6-1.1v-7.5c0-1.4 1.6-2.1 2.6-1.1z"/><circle class="st22" cx="185.3" cy="101.5" r="6.1"/><path class="st34" d="M47.2 35.9c.5.3 1.1.4 1.6.2 4.8-1.6 10-2.5 15.4-2.5s10.6.9 15.4 2.5c.5.2 1.1.1 1.5-.2 1.3-.8 1-2.7-.4-3.2C75.6 30.9 70 30 64.2 30c-5.8 0-11.4 1-16.6 2.7-1.4.5-1.7 2.4-.4 3.2zM39.6 29c.5.7 1.4.9 2.1.6 6.9-2.9 14.5-4.6 22.4-4.6 8 0 15.5 1.6 22.4 4.6.7.3 1.6.1 2.1-.5.7-.9.3-2.3-.7-2.7-7.3-3.1-15.4-4.9-23.8-4.9-8.5 0-16.5 1.7-23.8 4.9-1 .3-1.4 1.7-.7 2.6z"/></svg>