<svg xmlns="http://www.w3.org/2000/svg" viewBox="0 0 45.09 47.65"><defs><style>.cls-1{isolation:isolate}.cls-2{opacity:.04}.cls-2,.cls-6,.cls-8{mix-blend-mode:multiply}.cls-3{fill:#b6b6b6}.cls-4{fill:#cacaca}.cls-5{fill:#d7d7d7}.cls-6{opacity:.07}.cls-11,.cls-7{fill:#fff}.cls-8{opacity:.12}.cls-9{fill:#818181}.cls-10{fill:#939393}.cls-11{opacity:.15}</style></defs><title>Grey-star</title><g class="cls-1"><g id="Layer_2" data-name="Layer 2"><g id="Layer_1-2" data-name="Layer 1"><path class="cls-2" d="M45.09 25.07a22.55 22.55 0 0 1-32.41 20.31 22.37 22.37 0 0 1-5.45-3.74A22.54 22.54 0 0 1 22.52 2.56a22.36 22.36 0 0 1 9.9 2.27A22.71 22.71 0 0 1 39 9.73a19.81 19.81 0 0 1 1.6 1.87 22.09 22.09 0 0 1 2.2 3.57 22.51 22.51 0 0 1 2.29 9.9z"/><path class="cls-3" d="M45.09 23.9a22.55 22.55 0 0 1-36 18.1 21.21 21.21 0 0 1-1.86-1.55 22.76 22.76 0 0 1-4.93-6.58A22.55 22.55 0 0 1 39 8.57a23.26 23.26 0 0 1 1.56 1.86 22.53 22.53 0 0 1 4.53 13.47z"/><path class="cls-4" d="M45.09 22.51a22.55 22.55 0 0 1-31.84 20.58l-.57-.27a23.3 23.3 0 0 1-3.37-2l-.22-.16c-.63-.47-1.24-1-1.82-1.51a22.78 22.78 0 0 1-4.97-6.68c-.1-.19-.18-.38-.27-.57A22.55 22.55 0 0 1 31.84 2l.57.27A22.76 22.76 0 0 1 39 7.17c.54.58 1 1.19 1.52 1.82l.15.21a22.13 22.13 0 0 1 2 3.36l.27.58a22.47 22.47 0 0 1 2.15 9.37z"/><path class="cls-5" d="M39.08 7.22L7.27 39.13a22.78 22.78 0 0 1-4.97-6.66c-.1-.19-.18-.38-.27-.57L31.84 2l.57.27A22.76 22.76 0 0 1 39 7.17zm3.98 5.97l-29.81 29.9-.57-.27a23.3 23.3 0 0 1-3.37-2L40.75 9.25a22.13 22.13 0 0 1 2 3.36z"/><path class="cls-3" d="M41.7 22.51A19.16 19.16 0 1 1 22.52 3.39 19.22 19.22 0 0 1 41.7 22.51z"/><path class="cls-5" d="M41.7 23.56a19.16 19.16 0 0 1-38.31.06v-.52a19.15 19.15 0 0 0 38.3-.1c.01.21.01.39.01.56z"/><path class="cls-6" d="M3.39 22.57v.7a19.16 19.16 0 0 1 38.29-.06v-.7a19.16 19.16 0 0 0-38.31.06z"/><path class="cls-6" d="M38.76 23.79a15.81 15.81 0 0 1-.76 4.88A16.24 16.24 0 0 1 22.57 40a16.06 16.06 0 0 1-8.12-2.16 17.21 17.21 0 0 1-2.28-1.59 16.35 16.35 0 0 1-5.09-7.57L7 28.41a16 16 0 0 1-.66-4.57 16.23 16.23 0 0 1 30.24-8.16 16 16 0 0 1 2.19 8.11z"/><path class="cls-3" d="M38.76 22.94a15.76 15.76 0 0 1-.76 4.88 16.25 16.25 0 0 1-15.43 11.37A16.24 16.24 0 0 1 14.45 37a16.26 16.26 0 0 1-7.37-9.16L7 27.56A16 16 0 0 1 6.33 23a16.22 16.22 0 0 1 32.07-3.46 16 16 0 0 1 .36 3.4z"/><path class="cls-4" d="M38.77 22.1A16.05 16.05 0 0 1 38 27a16.25 16.25 0 0 1-15.43 11.34 16.47 16.47 0 0 1-3.4-.35l-.67-.16a15.84 15.84 0 0 1-4.05-1.66l-.33-.2a15 15 0 0 1-1.95-1.39l-.17-.17A16.22 16.22 0 0 1 7.08 27v-.31A16.2 16.2 0 0 1 22.52 5.9a16.08 16.08 0 0 1 4.57.65h.16a16.28 16.28 0 0 1 7.56 4.91l.16.2a15.65 15.65 0 0 1 1.4 1.94 3.79 3.79 0 0 1 .2.34 15.73 15.73 0 0 1 1.67 4c.06.23.11.45.16.67a16.65 16.65 0 0 1 .37 3.49z"/><path class="cls-5" d="M34.81 11.51L12 34.41A16.22 16.22 0 0 1 7.08 27v-.14L27.25 6.6a16.28 16.28 0 0 1 7.56 4.91zM38.24 18L18.5 37.83a15.84 15.84 0 0 1-4.05-1.66l-.33-.2 22.25-22.32a3.79 3.79 0 0 1 .2.34A15.73 15.73 0 0 1 38.24 18z"/><path class="cls-7" d="M36.54 12a1.83 1.83 0 0 0-1.7 1.7.2.2 0 0 1-.39 0 1.83 1.83 0 0 0-1.7-1.7.2.2 0 0 1 0-.39 1.83 1.83 0 0 0 1.7-1.7.2.2 0 0 1 .39 0 1.82 1.82 0 0 0 1.7 1.69.21.21 0 0 1 0 .4z"/><circle class="cls-7" cx="16.99" cy="25.57" r=".58"/><path d="M28.44 33a1.63 1.63 0 0 1-.49.09 1.83 1.83 0 0 1-.74-.18l-4.71-2.43L17.8 33l-.25.11a1.58 1.58 0 0 1-1.4-.2 1.62 1.62 0 0 1-.63-1.54l.86-5.26-3.85-3.68a1.56 1.56 0 0 1 .58-2.61 1.81 1.81 0 0 1 .27-.06l5.27-.8L21 14.15a1.55 1.55 0 0 1 .9-.79 1.44 1.44 0 0 1 .51-.09 1.59 1.59 0 0 1 1.41.87l2.38 4.76 5.28.73a1.56 1.56 0 0 1 1.28 1.05 1.6 1.6 0 0 1-.4 1.6L28.54 26l.94 5.23a1.55 1.55 0 0 1-.61 1.53 1.49 1.49 0 0 1-.43.23" class="cls-8"/><path class="cls-9" d="M32.79 17.67h-.92v.54a1.52 1.52 0 0 0-.43-.12l-5.28-.73-2.38-4.76a1.59 1.59 0 0 0-1.41-.87 1.7 1.7 0 0 0-.51.08 1.61 1.61 0 0 0-.9.8l-2.31 4.8-5.27.81a1.07 1.07 0 0 0-.27.06l-.13.06v-.67h-.92v2a1.52 1.52 0 0 0 .47 1.2l3.85 3.69-.56 3.44h-.32v2.08a1.62 1.62 0 0 0 .64 1.28 1.58 1.58 0 0 0 1.4.2l.25-.11 4.7-2.52 4.71 2.45a1.81 1.81 0 0 0 .74.17 1.62 1.62 0 0 0 .49-.08 1.57 1.57 0 0 0 1-1.39V28h-.33l-.63-3.52 3.78-3.76a1.57 1.57 0 0 0 .45-1z"/><path class="cls-10" d="M28.44 29.48a1.62 1.62 0 0 1-.49.08 1.81 1.81 0 0 1-.74-.17l-4.71-2.45-4.7 2.52-.25.11a1.55 1.55 0 0 1-1.4-.21 1.59 1.59 0 0 1-.63-1.53l.86-5.26-3.85-3.69a1.57 1.57 0 0 1-.41-1.59 1.6 1.6 0 0 1 1-1 1.07 1.07 0 0 1 .27-.06l5.27-.81L21 10.61a1.61 1.61 0 0 1 .9-.8 1.7 1.7 0 0 1 .51-.08 1.59 1.59 0 0 1 1.41.87l2.38 4.76 5.28.73a1.55 1.55 0 0 1 1.28 1.05 1.58 1.58 0 0 1-.4 1.59l-3.78 3.76.94 5.23a1.55 1.55 0 0 1-.61 1.53 1.49 1.49 0 0 1-.43.23"/><path class="cls-11" d="M15.43 27.83a1.6 1.6 0 0 0 .64 1.53 1.55 1.55 0 0 0 1.4.21l.25-.11 4.69-2.52 4.72 2.45a1.77 1.77 0 0 0 .73.17 1.57 1.57 0 0 0 .49-.08 1.42 1.42 0 0 0 .44-.23 1.55 1.55 0 0 0 .61-1.53l-.95-5.23 3.79-3.76a1.58 1.58 0 0 0 .4-1.59 1.56 1.56 0 0 0-1.28-1.05l-4.95-.68-10.69 10.68z"/></g></g></g></svg>