<svg xmlns="http://www.w3.org/2000/svg" viewBox="0 0 107.93 127.55"><defs><style>.cls-1{isolation:isolate}.cls-2{fill:#b6b6b6}.cls-3{fill:#cacaca}.cls-4{fill:#d7d7d7}.cls-5{fill:#fff}.cls-6{fill:#d2d2d2}.cls-7{fill:#e9e9e9}.cls-8{fill:#d9d9d9}.cls-9{fill:#f4f4f4}.cls-10{opacity:.07;mix-blend-mode:multiply}.cls-11{fill:#b5b5b5}.cls-12{fill:#a1a1a1}.cls-13{fill:#939393}.cls-14{fill:#9a9a9a}.cls-15{fill:#cfcfcf}.cls-16{fill:none}.cls-17{fill:#afafaf}.cls-18{fill:#919191}</style></defs><title>street-smartist</title><g class="cls-1"><g id="Layer_2" data-name="Layer 2"><g id="Layer_1-2" data-name="Layer 1"><path class="cls-2" d="M107.93 39.73v53.41a7.69 7.69 0 0 1-3.86 6.67l-46.25 26.71a7.7 7.7 0 0 1-7.71 0L28.39 114 3.86 99.81A7.69 7.69 0 0 1 0 93.14V39.73a7.71 7.71 0 0 1 3.86-6.68l46.25-26.7a7.7 7.7 0 0 1 7.71 0l17.81 10.28 28.44 16.42a7.76 7.76 0 0 1 3.86 6.68z"/><path class="cls-3" d="M107.93 34.41v53.41a7.71 7.71 0 0 1-3.86 6.68l-46.25 26.7a7.7 7.7 0 0 1-7.71 0l-16-9.23-5.72-3.31-4.67-2.66-6.16-3.56-13.7-7.94A7.71 7.71 0 0 1 0 87.82V34.41a7.69 7.69 0 0 1 3.86-6.67L50.11 1a7.65 7.65 0 0 1 7.71 0l17.81 10.32 20.76 12 6.16 3.56 1.47.85a7.73 7.73 0 0 1 3.86 6.67z"/><path class="cls-4" d="M96.44 23.33l-78.88 79.08-13.7-7.91A7.71 7.71 0 0 1 0 87.82v-.62l75.67-75.86zm11.49 11.08V38l-73.82 74-5.72-3.31-4.67-2.69 78.88-79.11 1.47.85a7.73 7.73 0 0 1 3.86 6.67z"/><path class="cls-2" d="M95.21 34.18L56.67 11.93a5.44 5.44 0 0 0-5.41 0L12.72 34.18A5.43 5.43 0 0 0 10 38.86v44.51a5.41 5.41 0 0 0 2.7 4.68l38.56 22.25a5.38 5.38 0 0 0 5.41 0l38.54-22.25a5.43 5.43 0 0 0 2.7-4.68V38.86a5.45 5.45 0 0 0-2.7-4.68zm-4 45.13a4.82 4.82 0 0 1-2.39 4.16l-32.41 18.7a4.79 4.79 0 0 1-2.39.65 4.87 4.87 0 0 1-2.41-.65L36.2 93.3 30 89.75l-10.84-6.28a4.82 4.82 0 0 1-2.4-4.16V42.93a4.79 4.79 0 0 1 2.41-4.16l32.39-18.7a4.76 4.76 0 0 1 2.44-.65 4.69 4.69 0 0 1 2.39.65l32.41 18.7A4.61 4.61 0 0 1 90.19 40a4.86 4.86 0 0 1 1 2.9z"/><path class="cls-5" d="M21.56 70.78c-2.7.58-3.66 1.55-4.24 4.24a.49.49 0 0 1-1 0c-.59-2.7-1.55-3.67-4.25-4.24a.5.5 0 0 1 0-1c2.7-.58 3.66-1.55 4.24-4.24a.49.49 0 0 1 1 0c.58 2.7 1.55 3.67 4.25 4.24a.5.5 0 0 1 0 1z"/><circle class="cls-5" cx="16.83" cy="59.1" r="2.02"/><circle class="cls-5" cx="90.57" cy="81.23" r="2.58"/><path class="cls-6" d="M68.22 40.37l-10.09-1A11.76 11.76 0 0 0 45.25 49.8l33.49 3.4a11.76 11.76 0 0 0-10.52-12.83zM49.6 47.9a1.13 1.13 0 1 1-2-.89 1.13 1.13 0 1 1 2 .89zm4.4-3.36c-1.31 1-2.8 1.29-3.33.6s.09-2.06 1.4-3.07 2.79-1.29 3.32-.6-.14 2.06-1.39 3.07z"/><path class="cls-7" d="M57.37 37.38l-.19 1.87 12 1.21.19-1.87a1.68 1.68 0 0 0 0-.5l-11.87-1.2a1.94 1.94 0 0 0-.13.49z"/><path class="cls-8" d="M57.48 36.89l11.87 1.2a2.26 2.26 0 0 0-2-2l-7.47-.76a2.25 2.25 0 0 0-2.4 1.56z"/><path class="cls-7" d="M78.38 56.75L81 57v.2l-.25 2.41 1 .1a1.38 1.38 0 0 0 1.5-1.23l.35-3.43a1.36 1.36 0 0 0-1.22-1.5l-3.57-.37a.13.13 0 0 0 0 .06zm-36.13-3.46v-.2l2.62.26.35-3.49a.13.13 0 0 1 0-.06l-3.57-.36a1.37 1.37 0 0 0-1.5 1.23l-.35 3.43a1.36 1.36 0 0 0 1.22 1.5l1 .1.24-2.41zm2.64.06l33.49 3.4.35-3.49a.13.13 0 0 1 0-.06l-33.48-3.4a.13.13 0 0 0 0 .06z"/><rect class="cls-7" x="79.64" y="58.42" width="2.42" transform="rotate(-84.2 80.855 58.423)"/><rect class="cls-7" x="40.92" y="54.49" width="2.42" transform="rotate(-84.2 42.136 54.497)"/><path class="cls-7" transform="rotate(-84.2 43.57 53.32)" d="M43.47 52.01h.2v2.62h-.2z"/><path class="cls-7" transform="rotate(-84.2 79.679 56.988)" d="M79.57 55.67h.2v2.62h-.2z"/><path class="cls-7" d="M74.77 56.59l3.59.37.02-.21-33.5-3.4-.01.21 29.9 3.03z"/><path class="cls-7" transform="rotate(-84.2 79.544 58.294)" d="M78.33 56.98h2.42v2.62h-2.42z"/><path class="cls-7" d="M78.36 56.96l-3.59-.37-2.65 2.17 5.99.6.25-2.4z"/><path class="cls-7" transform="rotate(-84.2 43.442 54.631)" d="M42.23 53.32h2.42v2.62h-2.42z"/><path class="cls-7" d="M44.87 53.56l-.25 2.4 27.5 2.8 2.65-2.17-29.9-3.03z"/><path class="cls-9" d="M52 42.07c-1.31 1-1.93 2.39-1.4 3.07s2 .42 3.33-.6 1.93-2.39 1.39-3.07-2-.42-3.32.6zm-2.81 4.07A1.5 1.5 0 0 0 48 48.77a1.29 1.29 0 0 0 1.58-.87 1.31 1.31 0 0 0-.39-1.76z"/><path class="cls-7" d="M56.48 30.55l-.21 2a2.44 2.44 0 0 0 2.17 2.65l1.42.14 7.47.76 1.42.14a2.41 2.41 0 0 0 2.65-2.16l.91-8.94a2.43 2.43 0 0 0-2.16-2.65l-10.32-1a2.41 2.41 0 0 0-2.65 2.16l-.2 2z"/><path class="cls-7" d="M58.38 26.53l.53.32h.08a2.25 2.25 0 0 1 .36-.24L57 25.59v.07zm-1.9 3.98v.04l.26-.14-.26.1z"/><path class="cls-10" d="M56.48 30.51v.04l.26-.14-.26.1z"/><ellipse class="cls-11" cx="60.34" cy="28.35" rx="2.05" ry="1.65" transform="rotate(-84.88 60.341 28.35)"/><path class="cls-12" d="M50.98 99.9l-1.39 1.13-2.67-1.54 4.06.41z"/><path class="cls-13" d="M78.11 59.36l-5.99-.6-27.5-2.8-2.61-.26-.38 3.7 2.61.27 23.81 2.41 9.66.98h.03l2.61.27.27-2.64.1-1.06-2.61-.27z"/><path class="cls-12" d="M44.24 59.67l-2.61-.27.37-3.7-3.06 30.19L41 65.59l2.61.27L60 67.52a1.48 1.48 0 0 1 .86.41l7.15-5.85zm36.11 3.66l-2.61-.26-14.15 11.54-3.06 2.51-1.66 16.33 14.82-12.12.57-5.63.53-5.22a1.45 1.45 0 0 1 1.59-1.3l.73.08 2.61.26z"/><path class="cls-14" d="M38.94 85.89l-.86 8.5v-.01l.86-8.49zm34.75-4.56l-1.17 11.52-16.16 9.32a4.79 4.79 0 0 1-2.39.65 4.87 4.87 0 0 1-2.41-.65l-2-1.14L51 99.9l1.39.14 4.33.44a1.45 1.45 0 0 0 1.58-1.3l.59-5.73z"/><rect class="cls-14" x="80.14" y="60.16" width="1.07" transform="matrix(.1 -.99 .99 .1 12.67 134.34)"/><path class="cls-14" d="M60.9 67.93a1.45 1.45 0 0 1 .44 1.18l-.53 5.22-.28 2.79 3.06-2.51 14.12-11.55-9.66-1z"/><path class="cls-15" d="M61.34 69.11l-.53 5.22-.28 2.79-1.66 16.33-.59 5.73a1.45 1.45 0 0 1-1.58 1.3l-4.33-.48-1.37-.1-4.06-.41-8.84-5.1.86-8.5L41 65.59l2.61.27L60 67.52a1.48 1.48 0 0 1 .86.41 1.45 1.45 0 0 1 .48 1.18zm18.38.41L79 77l-1.35 12.88-5.13 3 1.17-11.52.57-5.63.53-5.22a1.45 1.45 0 0 1 1.59-1.3l.73.07z"/><path class="cls-10" d="M56.36 97.82a4.79 4.79 0 0 1-2.39.65 4.87 4.87 0 0 1-2.41-.65L38.5 90.27l-.42 4.11 8.84 5.1 2.67 1.52 2 1.14a4.87 4.87 0 0 0 2.41.65 4.79 4.79 0 0 0 2.39-.65l16.16-9.32 5.13-3 .47-4.62zm0 0a4.79 4.79 0 0 1-2.39.65 4.87 4.87 0 0 1-2.41-.65L38.5 90.27l-.42 4.11 8.84 5.1 2.67 1.52 2 1.14a4.87 4.87 0 0 0 2.41.65 4.79 4.79 0 0 0 2.39-.65l16.16-9.32 5.13-3 .47-4.62z"/><path class="cls-16" d="M3.34 39.46a2.12 2.12 0 1 1 2.32-1.89 2.12 2.12 0 0 1-2.32 1.89z"/><path class="cls-10" d="M14.45 14.11l-.26.39.26.14c-.01-.18 0-.35 0-.53zm33.96 19.21a1.29 1.29 0 0 0-.84 1.14v.11c0 .04 0 .36-.05.54a2.34 2.34 0 0 1 0 .26 3.73 3.73 0 0 1-.09.46v.2c0 .07-.12.41-.19.62a1.46 1.46 0 0 1-.07.19c-.06.17-.12.33-.19.49a1.11 1.11 0 0 0-.07.16c-.1.2-.2.4-.32.6a1 1 0 0 1-.08.14c-.09.16-.2.32-.31.48l-.09.14c-.14.18-.28.37-.44.55l-.08.09c-.13.15-.27.29-.42.44l-.13.12c-.18.17-.35.32-.54.47l-.08.06-.52.37-.19.12a6.65 6.65 0 0 1-.58.33h-.06l-.12.05c-.2.1-.39.19-.59.27l-.27.1-.46.15-.32.09-.41.09-.36.07-.35.05h-.66a8.39 8.39 0 0 1-1.81-.12 1.18 1.18 0 0 0-1.4 1v.07l-.06.44a.51.51 0 0 0 0 .13c0 .15-.06.31-.1.46s0 0 0 .06l-.15.54c0 .16-.11.31-.16.47a1.17 1.17 0 0 1-.05.11c0 .14-.11.28-.17.42a.36.36 0 0 1 0 .09 9.25 9.25 0 0 1-.51 1l-.06.1-.24.38a.36.36 0 0 0-.07.1c-.1.15-.21.29-.32.43-.12.15-.24.3-.37.44l-.07.08-.31.33-.11.11-.32.31a.7.7 0 0 0-.1.08l-.43.36-.09.07c-.12.09-.24.18-.37.26l-.17.12-.31.2-.19.11-.36.2-.13.07A9.29 9.29 0 0 1 18.12 47c-.12-.24-.23-.49-.33-.73a.14.14 0 0 0 0-.06 6.28 6.28 0 0 1-.25-.73.19.19 0 0 1 0-.08 1.09 1.09 0 0 1-.05-.17l-.18.1a5.55 5.55 0 0 1-6-.54 6.56 6.56 0 0 1 .1 1.21 5.1 5.1 0 0 0 .88 2.83 5.42 5.42 0 0 0 7.55 1.25l.16-.12a9 9 0 0 0 .89 1.67 9.45 9.45 0 0 0 13.17 2.17A9.89 9.89 0 0 0 38 48.47a6.41 6.41 0 0 1 4.38-4.37 8.65 8.65 0 0 0 2.49-1.16 8.4 8.4 0 0 0 3.58-5.54 6 6 0 0 1 3.1-4.4l5.16-2.66zM10.56 37.5l-.12-.07-.44-.25-.24-.18-.39-.28-.18-.14c-.17-.15-.34-.3-.5-.46L8.52 36l-.42-.5a.71.71 0 0 1-.1-.09c-.15-.18-.29-.38-.43-.58l-.12-.19c-.12-.19-.24-.38-.34-.58a.43.43 0 0 0 0-.07 8.28 8.28 0 0 1-.88-3.17 1.22 1.22 0 0 0-.66-1l-.22-.13c-.14-.08-.29-.16-.42-.25l-.26-.17c-.13-.09-.26-.18-.38-.28l-.29-.2c-.19-.15-.36-.31-.54-.48a.86.86 0 0 0-.13-.14c-.13-.14-.26-.28-.38-.43a1.84 1.84 0 0 1-.17-.22c-.11-.13-.21-.27-.31-.41l-.15-.22c-.13-.22-.26-.44-.38-.67H2c-.09-.18-.17-.36-.25-.54s0-.08-.05-.13a4.24 4.24 0 0 1-.18-.5 8.4 8.4 0 0 0 .75 8A8.31 8.31 0 0 0 5 35.55a5.65 5.65 0 0 1 2.47 2.93 8.22 8.22 0 0 0 .85 1.6 7.89 7.89 0 0 0 1.12 1.31 5.41 5.41 0 0 1 1.12-3.89z"/><path class="cls-14" d="M1.46 25v.05a4.24 4.24 0 0 0 .18.5 4.24 4.24 0 0 1-.18-.5V25zm.25.67c.08.18.16.36.25.54H2c-.13-.21-.21-.36-.29-.54zm8.85 11.83l-.12-.07zm-4.33-6.68A8.28 8.28 0 0 0 7.1 34a.43.43 0 0 1 0 .07.43.43 0 0 0 0-.07 8.09 8.09 0 0 1-.87-3.18zM18.12 47a9.51 9.51 0 0 0 1.28 1.87A9.51 9.51 0 0 1 18.12 47zm-.67-1.76a1.09 1.09 0 0 0 .05.17c0-.06 0-.12-.05-.18z"/><path class="cls-14" d="M60.33 28.25a.86.86 0 0 0-.4-.66L59 27h-.08l-.47-.29-1.28-.79-.42-.26-8.32-5.12a10.49 10.49 0 0 0-.86-7.15 11.1 11.1 0 0 0-15-4.51 12.23 12.23 0 0 0-2.74 1.92 4.84 4.84 0 0 0-.21-.47 7.88 7.88 0 0 0-10.7-3.23 8.09 8.09 0 0 0-4.47 7v.53l-.26-.14a9 9 0 0 0-8.19.08 9.45 9.45 0 0 0-2.67 2.05l-.09.1-.17.28-.24.31-.18.24-.15.22-.25.4a1.28 1.28 0 0 1-.11.2l-.15.3a2 2 0 0 0-.1.21c-.07.15-.14.3-.2.45a1.34 1.34 0 0 1-.07.18c0 .12-.09.24-.13.37s0 .11-.05.17-.1.33-.14.5v.15l-.09.44a.69.69 0 0 1 0 .13c0 .18 0 .36-.06.54s0 .09 0 .14v.57a5.24 5.24 0 0 0 0 .56.57.57 0 0 0 0 .13v.51a.15.15 0 0 1 0 .07c0 .18.07.37.11.55v.13c.05.18.09.36.15.53s0 0 0 .05a4.24 4.24 0 0 0 .18.5c0 .05 0 .09.05.13s.16.36.25.54H2c.12.23.25.45.38.67l.15.22c.1.14.2.28.31.41a1.84 1.84 0 0 0 .17.22c.12.15.25.29.38.43a.86.86 0 0 1 .13.14c.18.17.35.33.54.48l.22.17c.12.1.25.19.38.28l.26.17c.13.09.28.17.42.25l.22.13a1.24 1.24 0 0 1 .66 1A8.09 8.09 0 0 0 7.1 34a.43.43 0 0 1 0 .07c.1.2.22.39.34.58l.12.19c.14.2.28.4.43.58a.71.71 0 0 0 .07.09l.42.47.17.16c.16.16.33.31.5.46l.18.14.39.28.26.17.42.25.12.07a5.41 5.41 0 0 0-1.13 3.89 4.83 4.83 0 0 0 .61 1.74 5 5 0 0 0 1.34 1.66 5.55 5.55 0 0 0 6 .54l.18-.1c0 .06 0 .12.05.18a.19.19 0 0 0 0 .08 6.28 6.28 0 0 0 .25.73.14.14 0 0 1 0 .06c.1.24.21.49.33.73a9.29 9.29 0 0 0 12.79 3.83l.13-.07.36-.2.19-.11.31-.2.17-.12c.13-.08.25-.17.37-.26l.09-.07.43-.36a.7.7 0 0 1 .1-.08l.32-.31.11-.11.31-.33a.27.27 0 0 0 .07-.08c.13-.14.25-.29.37-.44.11-.14.22-.28.32-.43a.36.36 0 0 1 .07-.1l.24-.38.06-.1a9.25 9.25 0 0 0 .51-1 .36.36 0 0 0 0-.09c.06-.14.12-.28.17-.42a1.17 1.17 0 0 0 .05-.11c0-.16.11-.31.16-.47l.15-.53v-.07c0-.02.07-.31.1-.46a.51.51 0 0 1 0-.13l.06-.44v-.07a1.18 1.18 0 0 1 1.4-1 8.3 8.3 0 0 0 1.8.12h.66l.35-.05.36-.07.41-.09.32-.09.46-.15.27-.1c.2-.08.39-.17.59-.27l.12-.06h.06a6.65 6.65 0 0 0 .58-.33l.19-.12.52-.37.08-.06c.18-.15.36-.3.54-.47l.13-.12c.15-.15.29-.29.42-.44l.08-.09c.16-.18.3-.37.44-.55l.09-.14c.11-.16.22-.32.31-.48a1 1 0 0 0 .08-.14c.12-.2.22-.4.32-.6a1.11 1.11 0 0 1 .07-.16c.07-.16.13-.32.19-.49a1.46 1.46 0 0 0 .07-.19c.07-.21.14-.41.19-.62s0-.13 0-.2a3.73 3.73 0 0 0 .09-.46 2.34 2.34 0 0 0 0-.26c0-.18 0-.36.05-.54v-.08a1.29 1.29 0 0 1 .84-1.14l8.3-3 .46-.3 1.78-.64 1-.38.13-.07a.86.86 0 0 0 .42-.86z"/><path class="cls-15" d="M3.77 35.25a2.12 2.12 0 1 0 1.89 2.32 2.12 2.12 0 0 0-1.89-2.32zm8.74-15.01a3.89 3.89 0 0 0 1.06 1.28 4.17 4.17 0 0 0 4.45.37l.16-.09a5.07 5.07 0 0 0 .54-.36c.13-.1.25-.21.37-.32a4 4 0 0 0 .83-4.66 3.81 3.81 0 0 0-2-1.8 4.19 4.19 0 0 0-3.36.06l-.13.06h-.06a4.27 4.27 0 0 0-2.24 2.94 3.83 3.83 0 0 0 .07 1.78 3.24 3.24 0 0 0 .31.74z"/><path class="cls-17" d="M40.12 26.45a8.82 8.82 0 0 0-.54-2.81A9 9 0 0 0 32 17.75a9.13 9.13 0 0 0-2.92.18 9.05 9.05 0 0 0-6.81 6.85c-.07.34-.13.69-.17 1a9 9 0 0 0 1.48 5.94 9.86 9.86 0 0 0 1.54 1.75 9 9 0 0 0 5.05 2.2 10.24 10.24 0 0 0 1.1 0 9.67 9.67 0 0 0 1.88-.24 9.05 9.05 0 0 0 5.19-3.42c.16-.21.3-.42.44-.64a9 9 0 0 0 1-2.33 9.12 9.12 0 0 0 .28-1.49 9.53 9.53 0 0 0 .06-1.1z"/><path class="cls-18" d="M60.33 28.25a.86.86 0 0 0-.4-.66L59 27h-.08l-.47-.29-1.28-.79-.42-.26-8.32-5.12c0 .07 0 .14-.05.21a11.47 11.47 0 0 1-4.75 6.71 7.6 7.6 0 0 1 3.13 3.22 7 7 0 0 1 .42 1 1.88 1.88 0 0 0-.1.47 8.21 8.21 0 0 1-.46 1.85 8.18 8.18 0 0 1-8.2 5.19 2.16 2.16 0 0 0-2.27 1.59.29.29 0 0 0 0 .1c-.06.29-.14.58-.23.87a9.4 9.4 0 0 1-4.74 5.58 9.05 9.05 0 0 1-12.09-3.38 5.75 5.75 0 0 1-1.61 1.31c0 .06 0 .12.05.18a.19.19 0 0 0 0 .08 6.28 6.28 0 0 0 .25.73.14.14 0 0 1 0 .06c.1.24.21.49.33.73a9.29 9.29 0 0 0 12.79 3.83l.13-.07.36-.2.19-.11.31-.2.17-.12c.13-.08.25-.17.37-.26l.09-.07.43-.36a.7.7 0 0 1 .1-.08l.32-.31.11-.11.31-.33a.27.27 0 0 0 .07-.08c.13-.14.25-.29.37-.44.11-.14.22-.28.32-.43a.36.36 0 0 1 .07-.1l.24-.38.06-.1a9.25 9.25 0 0 0 .51-1 .36.36 0 0 0 0-.09c.06-.14.12-.28.17-.42a1.17 1.17 0 0 0 .05-.11c0-.16.11-.31.16-.47l.15-.53v-.07c0-.02.07-.31.1-.46a.51.51 0 0 1 0-.13l.06-.44v-.07a1.18 1.18 0 0 1 1.4-1 8.3 8.3 0 0 0 1.8.12h.66l.35-.05.36-.07.41-.09.32-.09.46-.15.27-.1c.2-.08.39-.17.59-.27l.12-.06h.06a6.65 6.65 0 0 0 .58-.33l.19-.12.52-.37.08-.06c.18-.15.36-.3.54-.47l.13-.12c.15-.15.29-.29.42-.44l.08-.09c.16-.18.3-.37.44-.55l.09-.14c.11-.16.22-.32.31-.48a1 1 0 0 0 .08-.14c.12-.2.22-.4.32-.6a1.11 1.11 0 0 1 .07-.16c.07-.16.13-.32.19-.49a1.46 1.46 0 0 0 .07-.19c.07-.21.14-.41.19-.62s0-.13 0-.2a3.73 3.73 0 0 0 .09-.46 2.34 2.34 0 0 0 0-.26c0-.18 0-.36.05-.54v-.08a1.29 1.29 0 0 1 .84-1.14l8.3-3 .5-.32 1.78-.64 1-.38.13-.07a.86.86 0 0 0 .42-.86zm-51.99 2.9c-.09-.17-.16-.34-.24-.52a7.64 7.64 0 0 1-.55-2.07 2.17 2.17 0 0 0-.76-1.4A1.94 1.94 0 0 0 6.5 27a7.94 7.94 0 0 1-3.14-10.38l-.09.1-.2.28-.24.31-.18.24-.15.22-.25.4a1.28 1.28 0 0 1-.11.2l-.15.3a2 2 0 0 0-.1.21c-.07.15-.14.3-.2.45a1.34 1.34 0 0 1-.07.18c0 .12-.09.24-.13.37s0 .11-.05.17-.1.33-.14.5v.15l-.09.44a.69.69 0 0 1 0 .13c0 .18 0 .36-.06.54s0 .09 0 .14v.57a5.24 5.24 0 0 0 0 .56.57.57 0 0 0 0 .13v.51a.15.15 0 0 1 0 .07c0 .18.07.37.11.55v.13c.05.18.09.36.15.53s0 0 0 .05a4.24 4.24 0 0 0 .18.5c0 .05 0 .09.05.13s.16.36.25.54H2c.12.23.25.45.38.67l.15.22c.1.14.2.28.31.41a1.84 1.84 0 0 0 .17.22c.12.15.25.29.38.43a.86.86 0 0 1 .13.14c.18.17.35.33.54.48l.22.17c.12.1.25.19.38.28l.26.17c.13.09.28.17.42.25l.22.13a1.24 1.24 0 0 1 .66 1A8.09 8.09 0 0 0 7.1 34a.43.43 0 0 1 0 .07c.1.2.22.39.34.58l.12.19c.14.2.28.4.43.58a.71.71 0 0 0 .07.09l.42.47.17.16c.16.16.33.31.5.46l.18.14.39.28.26.17.42.25.12.07a5.78 5.78 0 0 1 1.51-1.35c.13-.08.26-.16.4-.23a5.72 5.72 0 0 1 1.67-.54A8.37 8.37 0 0 1 10.8 34a7.9 7.9 0 0 1-2.46-2.85z"/><path class="cls-15" d="M19.29 37.32l-.12-.14a5.36 5.36 0 0 0-5-1.8 5.72 5.72 0 0 0-1.67.54c-.14.07-.27.15-.4.23a5.78 5.78 0 0 0-1.51 1.35 5.41 5.41 0 0 0-1.13 3.89 4.83 4.83 0 0 0 .54 1.75 5 5 0 0 0 1.34 1.66 5.55 5.55 0 0 0 6 .54l.18-.1a5.75 5.75 0 0 0 1.61-1.31 5.47 5.47 0 0 0 1.15-2.31 5.12 5.12 0 0 0-.41-3.49 5.44 5.44 0 0 0-.58-.81z"/></g></g></g></svg>