<svg id="Layer_1" data-name="Layer 1" xmlns="http://www.w3.org/2000/svg" viewBox="0 0 2560 290"><defs><style>.cls-1{fill:none}.cls-2{clip-path:url(#clip-path)}.cls-3{fill:#8500ff}.cls-4{fill:#ff6900}.cls-5{fill:#be3187}.cls-6{fill:#7fe7ff}.cls-7{fill:#4268ff}.cls-8{fill:#7f9d80}.cls-9{fill:#3fb7c0}.cls-10{fill:#219cff}.cls-11{fill:#00d0ff}</style><clipPath id="clip-path"><path class="cls-1" d="M2560 290H0V0h2560v290"/></clipPath></defs><title>KW_Wallpapers</title><g class="cls-2"><path class="cls-3" d="M2560 290H0V0h2560v290"/><path class="cls-4" d="M1173.68 69.62A10.58 10.58 0 0 0 1184.26 59v-77.41A10.58 10.58 0 0 0 1173.68-29a10.58 10.58 0 0 0-10.58 10.58V59a10.58 10.58 0 0 0 10.58 10.58m-42.32 33.1a10.58 10.58 0 0 0 10.58-10.58V-18.41A10.58 10.58 0 0 0 1131.36-29a10.58 10.58 0 0 0-10.58 10.58V92.1a10.58 10.58 0 0 0 10.58 10.58m-21.16-53.26a10.57 10.57 0 0 1 10.56 10.1V1.13a10.57 10.57 0 0 1-10.56 10.27 10.56 10.56 0 0 1-10.56-10.27v58.35a10.56 10.56 0 0 1 10.55-10.1M1089 69.62A10.58 10.58 0 0 0 1099.62 59V-78A10.57 10.57 0 0 0 1089-88.5a10.58 10.58 0 0 0-10.58 10.58V59A10.58 10.58 0 0 0 1089 69.62"/><path class="cls-4" d="M1067.88 49.42a10.57 10.57 0 0 1 10.56 10.1v-78.23a10.58 10.58 0 0 1-10.57 10.28 10.57 10.57 0 0 1-10.56-10.28v78.19a10.56 10.56 0 0 1 10.55-10.1m-21.14 92.98a10.58 10.58 0 0 0 10.58-10.58V-18.41A10.58 10.58 0 0 0 1046.72-29a10.58 10.58 0 0 0-10.58 10.58v150.2a10.58 10.58 0 0 0 10.58 10.58M1384.44-.84a10.58 10.58 0 0 0-10.58 10.58v32.67a10.58 10.58 0 1 0 21.16 0V9.74a10.58 10.58 0 0 0-10.58-10.58m42.32-33.06a10.58 10.58 0 0 0-10.58 10.58v95.58a10.58 10.58 0 0 0 21.16 0v-95.58a10.58 10.58 0 0 0-10.58-10.58m21.16 53.26a10.56 10.56 0 0 1-10.55-10.1v58.39a10.57 10.57 0 0 1 21.13 0V9.26a10.58 10.58 0 0 1-10.56 10.1"/><path class="cls-4" d="M1469.08-.84a10.58 10.58 0 0 0-10.58 10.58v166.81a10.58 10.58 0 0 0 21.16 0V9.74a10.58 10.58 0 0 0-10.58-10.58m21.16 20.2a10.56 10.56 0 0 1-10.55-10.1v78.23a10.57 10.57 0 0 1 21.13 0V9.26a10.58 10.58 0 0 1-10.56 10.1"/><path class="cls-4" d="M1511.4-28.8a10.58 10.58 0 0 0-10.58 10.58V87.19a10.58 10.58 0 1 0 21.16 0V-18.22a10.58 10.58 0 0 0-10.58-10.58M1088.94 92a10.67 10.67 0 1 0 10.67 10.66A10.66 10.66 0 0 0 1088.94 92"/><path class="cls-5" d="M1131.64 236.21a10.66 10.66 0 1 0 10.67 10.66 10.66 10.66 0 0 0-10.67-10.66"/><path class="cls-4" d="M1236.87-57.11a10.58 10.58 0 0 0-10.58 10.58V64a10.58 10.58 0 0 0 21.16 0V-46.53a10.58 10.58 0 0 0-10.58-10.58M1258-20.52a10.56 10.56 0 0 1-10.55-10.1v58.4a10.57 10.57 0 0 1 21.13 0v-58.39A10.58 10.58 0 0 1 1258-20.52m21.19-92.48a10.58 10.58 0 0 0-10.58 10.58v137a10.58 10.58 0 1 0 21.16 0v-137.03a10.57 10.57 0 0 0-10.58-10.55m42.32 35a10.58 10.58 0 0 0-10.58 10.58v150.2a10.58 10.58 0 0 0 21.16 0V-67.4a10.58 10.58 0 0 0-10.58-10.6M1278.8 85.71a10.67 10.67 0 1 0-10.66-10.66 10.67 10.67 0 0 0 10.66 10.66"/><path class="cls-6" d="M1100.25 290h-21.12v4.69a10.56 10.56 0 1 0 21.12 0V290m31.67-354.42a10.55 10.55 0 0 0-10.56 10.55v32a10.59 10.59 0 0 1 10-7.14 10.58 10.58 0 0 1 10.58 10.58V0h.53v-53.87a10.55 10.55 0 0 0-10.55-10.55"/><path class="cls-7" d="M1088.94 113.36a10.67 10.67 0 1 1 10.67-10.67 10.67 10.67 0 0 1-10.67 10.67M1142.47 0h-.53v92.1a10.58 10.58 0 0 1-21.16 0v-9.29a10.54 10.54 0 0 1-20.51-2.93v.49-23.91a10.33 10.33 0 0 0-.6 3.06v-.48a10.58 10.58 0 1 1-21.16 0v.48a10.56 10.56 0 0 0-20.51-3.31v8.37a10.36 10.36 0 0 0-.69-3.75v70.95a10.57 10.57 0 0 1-20.39 3.94v72.11a10.56 10.56 0 1 0 21.11 0v-60.57.3a10.54 10.54 0 0 1 21.08 0v-.3V290h21.12V148.55v.31a10.54 10.54 0 0 1 21.08 0 3 3 0 0 0 0-.31v63.39a10.56 10.56 0 1 0 21.11 0v-43.59.3a10.54 10.54 0 0 1 21.08 0v-.3 59.28a10.56 10.56 0 0 0 21.11 0v-81.4a10.54 10.54 0 0 1 20.66 2.63V79.89a10.53 10.53 0 0 1-20.65 2.44V51.38a10.29 10.29 0 0 0-.44-3V59a10.58 10.58 0 0 1-20.67 3.16v1.9a10.54 10.54 0 0 1-21.06 0v.49V0"/><path class="cls-8" d="M1174.14 40.82a10.55 10.55 0 0 0-10.55 10.56V62.2a10.58 10.58 0 0 0 20.67-3.2V48.37a10.57 10.57 0 0 0-10.12-7.55M1131.36-29a10.59 10.59 0 0 0-10 7.14V79.89a10.07 10.07 0 0 1-.55 2.92v9.29a10.58 10.58 0 0 0 21.16 0V-18.41A10.58 10.58 0 0 0 1131.36-29m-31.74 80.69v7.79a10.33 10.33 0 0 1 .6-3.06v-1.15a10.41 10.41 0 0 0-.63-3.58"/><path class="cls-8" d="M1079.11 16.72a10.53 10.53 0 0 1-.65 3.18V59a10.58 10.58 0 1 0 21.16 0v-7.31a10.56 10.56 0 0 0-20.49 3.58V16.72m-21.13-.01V56.2a10.56 10.56 0 0 1 20.42 3.31V19.9a10.54 10.54 0 0 1-20.42-3.19m-.7 114.35a10.57 10.57 0 0 1-20.39 3.92v.74a10.57 10.57 0 0 0 20.39-3.94v-.72M1088.94 92a10.67 10.67 0 1 0 10.67 10.66A10.66 10.66 0 0 0 1088.94 92"/><path class="cls-6" d="M1268.75 290h-21.11v15.27a10.56 10.56 0 0 0 21.11 0V290m42.22 0h-21.11v35.06a10.56 10.56 0 0 0 21.11 0V290m-10.62-307.85a10.56 10.56 0 0 0-10.56 10.27v-1.59V0h21.16v-10.34 2.76a10.57 10.57 0 0 0-10.57-10.27M1216-20a10.55 10.55 0 0 0-10.55 10.55V0h20.86v-11.72A10.54 10.54 0 0 0 1216-20m126.65-13.19a10.56 10.56 0 0 0-10.54 10V0h21.1v-22.66a10.55 10.55 0 0 0-10.56-10.55m84.14-1.26a10.58 10.58 0 0 0-10.58 10.58v.18a10.58 10.58 0 0 1 10.57-10.19 10.58 10.58 0 0 1 10.58 10.58v-.57a10.58 10.58 0 0 0-10.57-10.58m42.3-16.12A10.58 10.58 0 0 0 1458.5-40V0h6.5a10.57 10.57 0 0 1 8.26 0h6.44v-40a10.58 10.58 0 0 0-10.58-10.58M1258.2-53a10.55 10.55 0 0 0-10.56 10.55v13.28a10.57 10.57 0 0 0 10.36 8.65 10.58 10.58 0 0 0 10.56-10.09v.48-14A10.55 10.55 0 0 0 1258.2-53m126.26-17.42A10.58 10.58 0 0 0 1374-61a10.57 10.57 0 0 1 10.49-9.21A10.57 10.57 0 0 1 1395-59.65v2.81a10.58 10.58 0 0 1-10.58 10.58 10.58 10.58 0 0 1-10.55-9.88V0h6.43a10.55 10.55 0 0 1 8.25 0h6.45v-59.84a10.58 10.58 0 0 0-10.58-10.58"/><path class="cls-7" d="M1380.32 0h-6.43v9.05a10.57 10.57 0 0 1 6.43-9M1278.8 85.71a10.67 10.67 0 1 1 10.67-10.66 10.66 10.66 0 0 1-10.67 10.66M1465 0h-6.45v91.46a10.56 10.56 0 0 1-21.12 0v.3V9.74v62.52a10.58 10.58 0 0 1-21.16 0V41.77a10.57 10.57 0 0 1-21.13 0v.31V0h-6.47a10.59 10.59 0 0 1 6.33 9.74v32.67a10.58 10.58 0 0 1-21.13.7v43.44a10.55 10.55 0 0 1-20.68 2.68V0h-21.1v82.78a10.58 10.58 0 0 1-21.16 0V0h-21.16v34.5a10.58 10.58 0 1 1-21.16 0v-7 .31a10.57 10.57 0 0 0-21.13 0v-.31V64a10.58 10.58 0 0 1-21.16 0V0h-20.86v219.51a10.56 10.56 0 0 0 21.11 0v-33 .3a10.54 10.54 0 0 1 21.08 0v-.3V290h21.11v-4.52.3a10.54 10.54 0 0 1 21.08 0v-.3V290H1311v-70.49.3a10.54 10.54 0 0 1 21.08 0v-.3 26.39a10.56 10.56 0 0 0 21.11 0v-84.7a10.55 10.55 0 0 1 20.67 2.49v-.48 43.07a10.58 10.58 0 1 0 21.15 0v-13.22.48a10.57 10.57 0 0 1 21.11 0v-.49 75.62a10.58 10.58 0 0 0 21.15 0v-75.61.48a10.56 10.56 0 0 1 21.1 0v-.49 33.05a10.58 10.58 0 1 0 21.15 0v-49a10.58 10.58 0 0 1-21.15-.55V9.74A10.59 10.59 0 0 1 1465 0m14.7 0h-6.44a10.58 10.58 0 0 1 6.44 9.19V0"/><path class="cls-8" d="M1384.44-.84a10.46 10.46 0 0 0-4.12.84 10.57 10.57 0 0 0-6.43 9.05v34.06a10.58 10.58 0 0 0 21.13-.7V9.74a10.58 10.58 0 0 0-10.58-10.58m42.32-33.06a10.58 10.58 0 0 0-10.57 10.19v65.79a.81.81 0 0 0 0-.16v30.34a10.58 10.58 0 0 0 21.16 0v-95.58a10.58 10.58 0 0 0-10.58-10.58"/><path class="cls-7" d="M1479.66 25.14v101.07a1 1 0 0 1 0 .17 10.56 10.56 0 0 1 20.6-2.79V84.45a10.57 10.57 0 0 0-20.59 3v-62.3"/><path class="cls-8" d="M1437.34 9.74v57.61V9.74m31.74-10.58a10.58 10.58 0 0 0-10.58 10.58v166.81a10.58 10.58 0 0 0 21.15.55v-51.2.31V25.14v.31V9.19a10.59 10.59 0 0 0-10.57-10"/><path class="cls-8" d="M1479.66 25.14v62.35a10.57 10.57 0 0 1 20.59-3V28.12a10.57 10.57 0 0 1-20.61-3M1522 56.75a10.59 10.59 0 0 0-.49 2.77v-.48 1.71a9.91 9.91 0 0 1 .52 1.81v-5.81m-7.46-85.09a10.57 10.57 0 0 1 6.94 9.93v-.3a10.6 10.6 0 0 0 .5 3V-19a10.58 10.58 0 0 0-7.46-9.34m-288.26 16.62V64a10.58 10.58 0 0 0 21.16 0V-8.5a10.54 10.54 0 0 1-10.36 8.62 10.55 10.55 0 0 1-10.53-10.07v.48a10.48 10.48 0 0 0-.25-2.25"/><path class="cls-8" d="M1268.59-30.61A10.58 10.58 0 0 1 1258-20.52a10.57 10.57 0 0 1-10.39-8.65v19.22a9.9 9.9 0 0 1-.17 1.45v36.31a10.57 10.57 0 0 1 21.13 0v-58.39m.04-13.59V34.5a10.58 10.58 0 1 0 21.16 0V-9.17a10.54 10.54 0 0 1-10.46 9.29 10.54 10.54 0 0 1-10.53-10.07v.48-33a9.74 9.74 0 0 0-.14-1.72m63.45 20.93v13.31A10.54 10.54 0 0 1 1321.52.12 10.55 10.55 0 0 1 1311-9.95v.48a8.44 8.44 0 0 0 0-.87v93.12a10.58 10.58 0 0 0 21.16 0v-106m-53.36 87.6a10.67 10.67 0 1 0 10.67 10.67 10.67 10.67 0 0 0-10.67-10.67"/><path class="cls-4" d="M709 69.62A10.58 10.58 0 0 0 719.61 59v-77.41A10.58 10.58 0 0 0 709-29a10.58 10.58 0 0 0-10.57 10.58V59A10.58 10.58 0 0 0 709 69.62m-42.28 33.06a10.58 10.58 0 0 0 10.57-10.58V-18.41A10.58 10.58 0 0 0 666.72-29a10.58 10.58 0 0 0-10.58 10.58V92.1a10.58 10.58 0 0 0 10.58 10.58m-21.17-53.26a10.57 10.57 0 0 1 10.56 10.1V1.13a10.57 10.57 0 0 1-21.13 0v58.35a10.58 10.58 0 0 1 10.55-10.1"/><path class="cls-4" d="M624.4 69.62A10.58 10.58 0 0 0 635 59V-78a10.58 10.58 0 0 0-10.6-10.5 10.57 10.57 0 0 0-10.58 10.58V59a10.58 10.58 0 0 0 10.58 10.62m-21.16-20.2a10.56 10.56 0 0 1 10.55 10.1v-78.23a10.57 10.57 0 0 1-10.55 10.28 10.58 10.58 0 0 1-10.57-10.28v78.19a10.58 10.58 0 0 1 10.56-10.1m-21.15 92.98a10.58 10.58 0 0 0 10.58-10.58V-18.41A10.58 10.58 0 0 0 582.08-29a10.58 10.58 0 0 0-10.58 10.59v150.19a10.58 10.58 0 0 0 10.58 10.58M919.8-.84a10.58 10.58 0 0 0-10.58 10.58v32.67a10.58 10.58 0 1 0 21.15 0V9.74A10.58 10.58 0 0 0 919.8-.84m42.31-33.06a10.58 10.58 0 0 0-10.57 10.58v95.58a10.58 10.58 0 1 0 21.15 0v-95.58a10.58 10.58 0 0 0-10.58-10.58"/><path class="cls-4" d="M983.28 19.36a10.57 10.57 0 0 1-10.56-10.1v58.39a10.57 10.57 0 0 1 21.13 0V9.26a10.57 10.57 0 0 1-10.55 10.1"/><path class="cls-4" d="M1004.43-.84a10.58 10.58 0 0 0-10.58 10.58v166.81a10.58 10.58 0 0 0 21.16 0V9.74a10.58 10.58 0 0 0-10.58-10.58"/><path class="cls-4" d="M1025.59 19.36A10.56 10.56 0 0 1 1015 9.26v78.23a10.57 10.57 0 0 1 21.13 0V9.26a10.58 10.58 0 0 1-10.56 10.1m21.18-48.16a10.58 10.58 0 0 0-10.58 10.58V87.19a10.58 10.58 0 1 0 21.16 0V-18.22a10.58 10.58 0 0 0-10.58-10.58M624.29 92A10.67 10.67 0 1 0 635 102.69 10.66 10.66 0 0 0 624.29 92"/><path class="cls-5" d="M667 236.21a10.66 10.66 0 1 0 10.66 10.66A10.67 10.67 0 0 0 667 236.21"/><path class="cls-4" d="M772.23-57.11a10.58 10.58 0 0 0-10.58 10.58V64a10.58 10.58 0 1 0 21.15 0V-46.53a10.58 10.58 0 0 0-10.57-10.58"/><path class="cls-4" d="M793.39-20.52a10.57 10.57 0 0 1-10.56-10.1v58.4a10.57 10.57 0 0 1 21.13 0v-58.39a10.57 10.57 0 0 1-10.55 10.09"/><path class="cls-4" d="M814.54-113A10.57 10.57 0 0 0 804-102.45v137a10.58 10.58 0 1 0 21.15 0v-137A10.57 10.57 0 0 0 814.54-113m42.32 35a10.58 10.58 0 0 0-10.58 10.6V82.78a10.58 10.58 0 0 0 21.16 0V-67.4A10.58 10.58 0 0 0 856.86-78m-84.53 214.06a10.67 10.67 0 1 0-10.66-10.67 10.67 10.67 0 0 0 10.66 10.67m41.82-50.35a10.67 10.67 0 1 0-10.66-10.66 10.67 10.67 0 0 0 10.66 10.66"/><path class="cls-6" d="M635.14 290h-21.21v5.53a10.61 10.61 0 1 0 21.21 0V290M667-65.32a10.61 10.61 0 0 0-10.6 10.61v34.14A10.58 10.58 0 0 1 666.72-29a10.58 10.58 0 0 1 10.57 10.58V0h.28v-54.71A10.61 10.61 0 0 0 667-65.32"/><path class="cls-7" d="M624.29 113.36A10.67 10.67 0 1 1 635 102.69a10.67 10.67 0 0 1-10.67 10.67M677.57 0h-.28v92.1a10.58 10.58 0 1 1-21.15 0V81.31a10.59 10.59 0 0 1-21-1.62v.49-22a10.94 10.94 0 0 0-.14 1.31v-.48a10.58 10.58 0 0 1-21.16 0v.48a10.57 10.57 0 0 0-21.08-.46v5.25c0-.37 0-.74-.05-1.1v68.57a10.58 10.58 0 1 1-21.16 0v76.47a10.61 10.61 0 1 0 21.21 0v-60.83.3a10.59 10.59 0 0 1 21.18 0v-.3V290h21.21V148.69v.31a10.59 10.59 0 0 1 21.18 0v-.31 63.69a10.61 10.61 0 1 0 21.21 0v-43.8.31a10.59 10.59 0 0 1 21.18 0v-.31 59.56a10.61 10.61 0 1 0 21.21 0v-81.78a10.59 10.59 0 0 1 20.83 2.64V79.69A10.58 10.58 0 0 1 720 82.14V51.05a10.4 10.4 0 0 0-.39-2.86V59a10.58 10.58 0 0 1-20.82 2.63v2.15a10.59 10.59 0 0 1-21.16 0v.49V0"/><path class="cls-8" d="M709.39 40.44a10.61 10.61 0 0 0-10.6 10.61v10.62A10.58 10.58 0 0 0 719.61 59V48.19a10.61 10.61 0 0 0-10.22-7.75M666.72-29a10.58 10.58 0 0 0-10.36 8.42V79.69a10.86 10.86 0 0 1-.19 1.62V92.1a10.58 10.58 0 1 0 21.15 0V-18.41A10.58 10.58 0 0 0 666.72-29M635 53.08v6.48a10.94 10.94 0 0 1 .14-1.31V55a11.63 11.63 0 0 0-.16-1.88"/><path class="cls-8" d="M613.9 16.22c0 .32 0 .64-.08 1V59A10.58 10.58 0 0 0 635 59v-6a10.61 10.61 0 0 0-21.07 2V16.22"/><path class="cls-8" d="M592.74 16.21v42.85a10.57 10.57 0 0 1 21.08.46V17.17a10.59 10.59 0 0 1-21.08-1M582.1 53.7a10.61 10.61 0 0 0-10.6 10.61v67.47a10.58 10.58 0 1 0 21.16 0V63.21a10.63 10.63 0 0 0-10.56-9.51M624.29 92A10.67 10.67 0 1 0 635 102.69 10.66 10.66 0 0 0 624.29 92"/><path class="cls-6" d="M804.1 290H783v15.27a10.55 10.55 0 0 0 21.1 0V290m42.22 0h-21.11v35.06a10.56 10.56 0 0 0 21.11 0V290M835.7-17.85a10.56 10.56 0 0 0-10.56 10.27v-1.59V0h21.16v-10.34 2.76a10.57 10.57 0 0 0-10.6-10.27M751.33-20a10.56 10.56 0 0 0-10.55 10.53V0h20.87v-11.73A10.57 10.57 0 0 0 751.33-20M878-33.21a10.55 10.55 0 0 0-10.54 10V0h21.1v-22.66A10.55 10.55 0 0 0 878-33.21m84.14-1.26a10.58 10.58 0 0 0-10.58 10.58v.18a10.58 10.58 0 0 1 10.55-10.19 10.58 10.58 0 0 1 10.58 10.58v-.57a10.58 10.58 0 0 0-10.57-10.58m42.3-16.12A10.58 10.58 0 0 0 993.85-40V0h6.46a10.55 10.55 0 0 1 8.25 0h6.44v-40a10.58 10.58 0 0 0-10.58-10.58M793.55-53A10.55 10.55 0 0 0 783-42.45v13.28a10.56 10.56 0 0 0 10.39 8.65 10.57 10.57 0 0 0 10.55-10.09v.48-14A10.55 10.55 0 0 0 793.55-53m126.26-17.42A10.58 10.58 0 0 0 909.3-61a10.58 10.58 0 0 1 10.5-9.21 10.57 10.57 0 0 1 10.57 10.58v2.81a10.58 10.58 0 0 1-10.57 10.56 10.58 10.58 0 0 1-10.56-9.88V0h6.43a10.55 10.55 0 0 1 8.25 0h6.47v-59.84a10.58 10.58 0 0 0-10.58-10.58"/><path class="cls-7" d="M915.67 0h-6.43v9.05a10.57 10.57 0 0 1 6.43-9M772.33 136.06A10.67 10.67 0 1 1 783 125.39a10.67 10.67 0 0 1-10.67 10.67m41.82-50.35a10.67 10.67 0 1 1 10.67-10.66 10.66 10.66 0 0 1-10.67 10.66M1000.31 0h-6.46v91.46a10.56 10.56 0 0 1-21.12 0v.3V9.74v62.52a10.58 10.58 0 1 1-21.15 0V41.92a.76.76 0 0 1 0-.15 10.56 10.56 0 0 1-21.12 0v.31V0h-6.47a10.57 10.57 0 0 1 6.45 9.74v32.67a10.58 10.58 0 0 1-21.13.7v43.44a10.55 10.55 0 0 1-20.68 2.68V0h-21.1v82.78a10.58 10.58 0 0 1-21.16 0V0h-21.25v34.5a10.58 10.58 0 1 1-21.15 0v-7 .31a10.57 10.57 0 0 0-21.13 0v-.31V64a10.58 10.58 0 1 1-21.15 0V0h-20.91v219.51a10.56 10.56 0 0 0 21.11 0v-33 .3a10.54 10.54 0 0 1 21.08 0v-.3V290h21.1v-4.52.3a10.54 10.54 0 0 1 21.08 0v-.3V290h21.11v-70.49.3a10.54 10.54 0 0 1 21.07 0v-.3 26.39a10.56 10.56 0 0 0 21.11 0v-84.7a10.55 10.55 0 0 1 20.67 2.49v-.48 43.07a10.58 10.58 0 1 0 21.15 0v-13.22.48a10.56 10.56 0 0 1 21.1 0v-.49 75.62a10.58 10.58 0 0 0 21.15 0v-75.61.48a10.56 10.56 0 0 1 21.1 0v-.49 33.05a10.58 10.58 0 1 0 21.15 0v-49a10.58 10.58 0 0 1-21.15-.55V9.74a10.58 10.58 0 0 1 6.7-9.74M1015 0h-6.44a10.57 10.57 0 0 1 6.44 9.19V0m0 25.14v101.07a1 1 0 0 1 0 .17 10.57 10.57 0 0 1 21.11 0V87.15a10.57 10.57 0 0 0-21.11.34v-62.3"/><path class="cls-8" d="M1046.72-29a10.58 10.58 0 0 0-10.57 10.19V126.1a1.34 1.34 0 0 0 0-.2v5.16a10.45 10.45 0 0 0 .76 3.92V91.06a10.41 10.41 0 0 1-.74-3.87V-18.22a10.58 10.58 0 0 1 10.58-10.58 10.57 10.57 0 0 1 10.43 8.8 10.57 10.57 0 0 0-10.46-9"/><path class="cls-9" d="M1057.3 88a10.58 10.58 0 0 1-20.39 3.08V135a10.57 10.57 0 0 0 20.39-3.92V88"/><path class="cls-8" d="M919.8-.84a10.59 10.59 0 0 0-10.56 9.89v34.06a10.58 10.58 0 0 0 21.13-.7V9.74A10.57 10.57 0 0 0 923.92 0a10.46 10.46 0 0 0-4.12-.84m42.31-33.06a10.58 10.58 0 0 0-10.57 10.19v96a10.58 10.58 0 1 0 21.15 0v-95.61a10.58 10.58 0 0 0-10.58-10.58m10.58 43.64v57.61V9.74m31.74-10.58a10.46 10.46 0 0 0-4.12.84 10.58 10.58 0 0 0-6.46 9.74v166.81a10.58 10.58 0 0 0 21.15.55v-51.2.31V25.14v.31V9.19a10.59 10.59 0 0 0-10.57-10m31.72 10.1v15.85a10.57 10.57 0 0 1-21.13 0v62.35a10.57 10.57 0 0 1 21.11-.34v.04-77.9m10.62-38.09a10.58 10.58 0 0 0-10.58 10.58V87.19a10.41 10.41 0 0 0 .74 3.87A10.58 10.58 0 0 0 1057.3 88V-19a8 8 0 0 0-.12-1 10.57 10.57 0 0 0-10.43-8.8m-285.1 17.07V64a10.58 10.58 0 1 0 21.15 0V-8.5A10.53 10.53 0 0 1 772.44.12a10.55 10.55 0 0 1-10.53-10.07v.48a11.25 11.25 0 0 0-.24-2.26"/><path class="cls-8" d="M803.94-30.61a10.57 10.57 0 0 1-10.55 10.09A10.56 10.56 0 0 1 783-29.17v19.22a9.74 9.74 0 0 1-.17 1.45v36.31a10.57 10.57 0 0 1 21.13 0v-58.39"/><path class="cls-8" d="M804-44.16V34.5a10.58 10.58 0 1 0 21.15 0V-9.17A10.54 10.54 0 0 1 814.66.12a10.54 10.54 0 0 1-10.53-10.07v.48-33a10.76 10.76 0 0 0-.13-1.71m63.44 20.94v13.29A10.54 10.54 0 0 1 856.87.12a10.55 10.55 0 0 1-10.53-10.07v.48a8.44 8.44 0 0 0 0-.87v93.12a10.58 10.58 0 0 0 21.16 0v-106m-95.17 137.95A10.67 10.67 0 1 0 783 125.39a10.66 10.66 0 0 0-10.67-10.66m41.82-50.35a10.67 10.67 0 1 0 10.67 10.67 10.67 10.67 0 0 0-10.67-10.67"/><path class="cls-4" d="M1637.81 69.62A10.58 10.58 0 0 0 1648.39 59v-77.41A10.58 10.58 0 0 0 1637.81-29a10.58 10.58 0 0 0-10.58 10.58V59a10.58 10.58 0 0 0 10.58 10.58m-42.32 33.1a10.58 10.58 0 0 0 10.58-10.58V-18.41A10.58 10.58 0 0 0 1595.49-29a10.58 10.58 0 0 0-10.58 10.58V92.1a10.58 10.58 0 0 0 10.58 10.58m-21.16-53.26a10.58 10.58 0 0 1 10.56 10.1V1.13a10.58 10.58 0 0 1-10.57 10.27 10.56 10.56 0 0 1-10.56-10.27v58.35a10.58 10.58 0 0 1 10.56-10.1"/><path class="cls-4" d="M1553.17 69.62A10.58 10.58 0 0 0 1563.75 59V-78a10.57 10.57 0 0 0-10.58-10.58A10.58 10.58 0 0 0 1542.59-78V59a10.58 10.58 0 0 0 10.58 10.58M1532 49.42a10.58 10.58 0 0 1 10.56 10.1v-78.23A10.59 10.59 0 0 1 1532-8.43a10.57 10.57 0 0 1-10.56-10.28v78.19A10.56 10.56 0 0 1 1532 49.42m-21.15 92.94a10.58 10.58 0 0 0 10.58-10.58V-18.41A10.58 10.58 0 0 0 1510.85-29a10.58 10.58 0 0 0-10.58 10.58v150.2a10.58 10.58 0 0 0 10.58 10.58M1848.57-.84A10.58 10.58 0 0 0 1838 9.74v32.67a10.58 10.58 0 0 0 21.16 0V9.74a10.58 10.58 0 0 0-10.59-10.58m42.32-33.06a10.58 10.58 0 0 0-10.58 10.58v95.58a10.58 10.58 0 1 0 21.16 0v-95.58a10.58 10.58 0 0 0-10.58-10.58m21.16 53.26a10.56 10.56 0 0 1-10.55-10.1v58.39a10.57 10.57 0 0 1 21.13 0V9.26a10.58 10.58 0 0 1-10.56 10.1m21.14-20.2a10.58 10.58 0 0 0-10.58 10.58v166.81a10.58 10.58 0 0 0 21.16 0V9.74a10.58 10.58 0 0 0-10.58-10.58m21.16 20.2a10.58 10.58 0 0 1-10.56-10.1v78.23a10.57 10.57 0 0 1 21.13 0V9.26a10.58 10.58 0 0 1-10.56 10.1m21.15-48.16A10.58 10.58 0 0 0 1965-18.22V87.19a10.58 10.58 0 0 0 21.16 0V-18.22a10.58 10.58 0 0 0-10.58-10.58M1553.07 92a10.67 10.67 0 1 0 10.66 10.66A10.66 10.66 0 0 0 1553.07 92"/><path class="cls-5" d="M1595.77 236.21a10.66 10.66 0 1 0 10.66 10.66 10.66 10.66 0 0 0-10.66-10.66"/><path class="cls-4" d="M1701-57.11a10.58 10.58 0 0 0-10.58 10.58V64a10.58 10.58 0 1 0 21.16 0V-46.53A10.58 10.58 0 0 0 1701-57.11m21.16 36.59a10.56 10.56 0 0 1-10.55-10.1v58.4a10.57 10.57 0 0 1 21.13 0v-58.39a10.58 10.58 0 0 1-10.56 10.09"/><path class="cls-4" d="M1743.32-113a10.58 10.58 0 0 0-10.58 10.58v137a10.58 10.58 0 0 0 21.16 0v-137.03a10.58 10.58 0 0 0-10.58-10.55m42.32 35a10.58 10.58 0 0 0-10.58 10.58v150.2a10.58 10.58 0 1 0 21.16 0V-67.4a10.58 10.58 0 0 0-10.58-10.6m-84.53 214.06a10.67 10.67 0 1 0-10.67-10.67 10.67 10.67 0 0 0 10.67 10.67m41.82-50.35a10.67 10.67 0 1 0-10.66-10.66 10.66 10.66 0 0 0 10.66 10.66"/><path class="cls-6" d="M1564.37 290h-21.11v4.69a10.56 10.56 0 1 0 21.11 0V290M1596-64.42a10.55 10.55 0 0 0-10.55 10.55v32a10.58 10.58 0 0 1 10-7.14 10.58 10.58 0 0 1 10.58 10.58V0h.53v-53.87A10.55 10.55 0 0 0 1596-64.42"/><path class="cls-7" d="M1553.07 113.36a10.67 10.67 0 1 1 10.66-10.67 10.67 10.67 0 0 1-10.66 10.67M1606.6 0h-.53v92.1a10.58 10.58 0 1 1-21.16 0v-9.29a10.54 10.54 0 0 1-20.51-2.93v.49-23.91a10.66 10.66 0 0 0-.6 3.06v-.48a10.58 10.58 0 1 1-21.16 0v.48a10.56 10.56 0 0 0-20.42-3.31v8.37a10.4 10.4 0 0 0-.17-1.87v67.91a10.91 10.91 0 0 1-20.92 5.11v72.1a10.56 10.56 0 0 0 21.12 0v-60.57.3a10.55 10.55 0 0 1 21.09 0v-.3V290h21.11V148.55v.31a10.54 10.54 0 0 1 21.08 0v-.31 63.39a10.56 10.56 0 1 0 21.11 0v-43.59.3a10.55 10.55 0 0 1 21.09 0v-.3 59.28a10.56 10.56 0 0 0 21.11 0v-81.4a10.54 10.54 0 0 1 20.67 2.63V79.89a10.54 10.54 0 0 1-20.66 2.44V51.38a10.73 10.73 0 0 0-.43-3V59a10.58 10.58 0 0 1-20.68 3.16v1.9a10.55 10.55 0 0 1-21.07 0v.49V0"/><path class="cls-8" d="M1522 62.56v24.67-24.67"/><path class="cls-10" d="M1522 88a10.08 10.08 0 0 1-.52 2.6v41.22a10.47 10.47 0 0 1-.69 3.77 10.6 10.6 0 0 0 1.21-4.93V88"/><path class="cls-9" d="M1521.43 60.75v29.81A10.08 10.08 0 0 0 1522 88V62.56a9.91 9.91 0 0 0-.52-1.81"/><path class="cls-8" d="M1638.27 40.82a10.56 10.56 0 0 0-10.56 10.56V62.2a10.58 10.58 0 0 0 20.68-3.2V48.37a10.58 10.58 0 0 0-10.12-7.55M1595.49-29a10.58 10.58 0 0 0-10 7.14V79.89a10.07 10.07 0 0 1-.55 2.92v9.29a10.58 10.58 0 1 0 21.16 0V-18.41A10.58 10.58 0 0 0 1595.49-29m-31.74 80.69v7.79a10.66 10.66 0 0 1 .6-3.06v-1.15a10.65 10.65 0 0 0-.62-3.58"/><path class="cls-8" d="M1543.24 16.72a10.91 10.91 0 0 1-.65 3.19V59a10.58 10.58 0 1 0 21.16 0v-7.31a10.56 10.56 0 0 0-20.49 3.58V16.72"/><path class="cls-8" d="M1522.17 16.71V56.2a10.56 10.56 0 0 1 20.42 3.31v-39.6a10.54 10.54 0 0 1-20.42-3.2M1511.59 54A10.56 10.56 0 0 0 1501 64.58v71.15a10.59 10.59 0 0 0 19.71-.18 10.47 10.47 0 0 0 .69-3.77v-71a10.55 10.55 0 0 0-9.84-6.73M1553.07 92a10.67 10.67 0 1 0 10.66 10.66A10.66 10.66 0 0 0 1553.07 92"/><path class="cls-6" d="M1732.88 290h-21.11v15.27a10.56 10.56 0 0 0 21.11 0V290m42.22 0H1754v35.06a10.56 10.56 0 0 0 21.11 0V290m-10.63-307.85a10.56 10.56 0 0 0-10.56 10.27v-1.61V0h21.16v-10.34 2.76a10.58 10.58 0 0 0-10.57-10.27m-84.4-2.15a10.55 10.55 0 0 0-10.55 10.55V0h20.86v-11.73a10.56 10.56 0 0 0-10.31-8.27m126.65-13.19a10.55 10.55 0 0 0-10.54 10V0h21.09v-22.66a10.55 10.55 0 0 0-10.55-10.55m84.14-1.26a10.58 10.58 0 0 0-10.58 10.58v.18a10.58 10.58 0 0 1 10.57-10.19 10.58 10.58 0 0 1 10.58 10.58v-.57a10.58 10.58 0 0 0-10.57-10.58m42.3-16.12A10.58 10.58 0 0 0 1922.62-40V0h6.46a10.57 10.57 0 0 1 8.26 0h6.44v-40a10.58 10.58 0 0 0-10.58-10.58M1722.33-53a10.55 10.55 0 0 0-10.56 10.55v13.29a10.58 10.58 0 0 0 10.39 8.64 10.58 10.58 0 0 0 10.56-10.09v.48-14a10.55 10.55 0 0 0-10.39-8.87m126.26-17.42a10.57 10.57 0 0 0-10.51 9.4 10.57 10.57 0 0 1 10.49-9.21 10.58 10.58 0 0 1 10.58 10.58v2.81a10.58 10.58 0 0 1-10.58 10.58 10.58 10.58 0 0 1-10.57-9.88V0h6.43a10.57 10.57 0 0 1 8.26 0h6.47v-59.84a10.58 10.58 0 0 0-10.58-10.58"/><path class="cls-7" d="M1844.44 0H1838v9.05a10.59 10.59 0 0 1 6.43-9m-143.32 136.01a10.67 10.67 0 1 1 10.66-10.67 10.67 10.67 0 0 1-10.66 10.67m41.82-50.35a10.67 10.67 0 1 1 10.66-10.66 10.66 10.66 0 0 1-10.66 10.66M1929.08 0h-6.46v9.54a1.41 1.41 0 0 1 0 .2v57.61a.76.76 0 0 1 0 .15v23.96a10.56 10.56 0 0 1-21.12 0v.3V9.74v62.52a10.58 10.58 0 1 1-21.16 0V41.77a10.56 10.56 0 0 1-21.12 0v.31V0h-6.47a10.59 10.59 0 0 1 6.45 9.74v32.67a10.58 10.58 0 0 1-21.14.7v43.44a10.56 10.56 0 0 1-20.69 2.68V0h-21.09v82.78a10.58 10.58 0 1 1-21.16 0V0h-21.22v34.5a10.58 10.58 0 0 1-21.16 0v-7 .31a10.57 10.57 0 0 0-21.13 0v-.31V64a10.58 10.58 0 1 1-21.16 0V0h-20.86v219.51a10.55 10.55 0 0 0 21.1 0v-33 .3a10.54 10.54 0 0 1 21.08 0v-.3V290h21.11v-4.52.3a10.54 10.54 0 0 1 21.07 0v-.3V290h21.11v-70.49.3a10.54 10.54 0 0 1 21.08 0v-.3 26.39a10.56 10.56 0 0 0 21.11 0v-84.7a10.56 10.56 0 0 1 20.68 2.49v-.48 43.07a10.58 10.58 0 0 0 21.16 0v-13.22.48a10.56 10.56 0 0 1 21.1 0v-.49 75.62a10.58 10.58 0 0 0 21.15 0v-75.61.48a10.56 10.56 0 0 1 21.1 0v-.49 33.05a10.58 10.58 0 1 0 21.16 0v-49a10.58 10.58 0 0 1-21.15-.55V9.74a10.59 10.59 0 0 1 6.63-9.74m14.7 0h-6.44a10.6 10.6 0 0 1 6.44 9.19V0"/><path class="cls-6" d="M1975.5-50.59A10.58 10.58 0 0 0 1964.93-40V0v-18.22a10.58 10.58 0 0 1 10.58-10.58 10.58 10.58 0 0 1 10.57 9.8v-21a10.58 10.58 0 0 0-10.58-10.58"/><path class="cls-7" d="M1965 0v87.49a10.57 10.57 0 0 0-21.13 0v-62.3 101.19a10.56 10.56 0 0 1 21.1 0v-.48 67.16a10.58 10.58 0 1 0 21.15 0V88a10.58 10.58 0 0 1-21.13-.79V0"/><path class="cls-8" d="M1848.57-.84A10.59 10.59 0 0 0 1838 9.05v34.06a10.58 10.58 0 0 0 21.14-.7V9.74a10.58 10.58 0 0 0-10.57-10.58m42.32-33.06a10.58 10.58 0 0 0-10.57 10.19v95.97a10.58 10.58 0 1 0 21.16 0v-95.58a10.58 10.58 0 0 0-10.58-10.58m10.57 43.64v57.61V9.74m21.15-.2v58a.76.76 0 0 0 0-.15V9.74a1.41 1.41 0 0 0 0-.2"/><path class="cls-8" d="M1933.21-.84a10.58 10.58 0 0 0-10.58 10.58v166.81a10.58 10.58 0 0 0 21.15.55v-51.2.31V25.14v.31V9.19a10.59 10.59 0 0 0-10.57-10m31.72 10.1v15.85a10.56 10.56 0 0 1-21.12 0v62.35a10.57 10.57 0 0 1 21.13 0V9.29m10.59-38.09A10.58 10.58 0 0 0 1965-18.22V87.19a10.58 10.58 0 0 0 21.13.79V-19a10.58 10.58 0 0 0-10.55-9.78m-285.16 17.05V64a10.58 10.58 0 1 0 21.16 0V-8.5a10.54 10.54 0 0 1-10.36 8.62 10.54 10.54 0 0 1-10.53-10.07v.48a10.57 10.57 0 0 0-.24-2.26m42.27-18.88a10.58 10.58 0 0 1-10.56 10.09 10.58 10.58 0 0 1-10.39-8.64v19.21a11.27 11.27 0 0 1-.17 1.45v36.31a10.57 10.57 0 0 1 21.13 0v-58.39m.01-13.58V34.5a10.58 10.58 0 0 0 21.16 0V-9.19a10.55 10.55 0 0 1-10.47 9.31 10.54 10.54 0 0 1-10.52-10.07v.48-33a10.76 10.76 0 0 0-.14-1.71m63.45 20.94v13.29A10.55 10.55 0 0 1 1785.65.12a10.54 10.54 0 0 1-10.53-10.07v-.39 93.12a10.58 10.58 0 1 0 21.16 0v-106m-95.17 137.95a10.67 10.67 0 1 0 10.66 10.66 10.67 10.67 0 0 0-10.66-10.66m41.82-50.35a10.67 10.67 0 1 0 10.66 10.67 10.67 10.67 0 0 0-10.66-10.67"/><path class="cls-4" d="M919.76 97.11a10.5 10.5 0 0 0-10.5 10.5v23.22a10.5 10.5 0 0 0 21 0v-23.22a10.5 10.5 0 0 0-10.5-10.5zm254.41 66.64a10.51 10.51 0 0 0-10.5 10.5v23.23a10.5 10.5 0 0 0 21 0v-23.23a10.51 10.51 0 0 0-10.5-10.5zm464.33 0a10.51 10.51 0 0 0-10.5 10.5v23.23a10.5 10.5 0 0 0 21 0v-23.23a10.51 10.51 0 0 0-10.5-10.5zm209.88-59.05a10.5 10.5 0 0 0-10.5 10.5v23.22a10.5 10.5 0 1 0 21 0V115.2a10.5 10.5 0 0 0-10.5-10.5zM814.06 149.66a10.5 10.5 0 0 0-10.5 10.49v23.23a10.5 10.5 0 0 0 21 0v-23.23a10.5 10.5 0 0 0-10.5-10.49zm823.75-80.04A10.58 10.58 0 0 0 1648.39 59v-77.41A10.58 10.58 0 0 0 1637.81-29a10.58 10.58 0 0 0-10.58 10.58V59a10.58 10.58 0 0 0 10.58 10.62zm-42.32 33.06a10.58 10.58 0 0 0 10.58-10.58V-18.41A10.58 10.58 0 0 0 1595.49-29a10.58 10.58 0 0 0-10.58 10.58V92.1a10.58 10.58 0 0 0 10.58 10.58zm-21.16-53.26a10.58 10.58 0 0 1 10.56 10.1V1.13a10.58 10.58 0 0 1-10.57 10.27 10.56 10.56 0 0 1-10.56-10.27v58.35a10.56 10.56 0 0 1 10.57-10.06z"/><path class="cls-4" d="M1553.17 69.62A10.58 10.58 0 0 0 1563.75 59V-78a10.58 10.58 0 0 0-10.58-10.58A10.58 10.58 0 0 0 1542.59-78V59a10.58 10.58 0 0 0 10.58 10.62zM1532 49.42a10.58 10.58 0 0 1 10.56 10.1v-78.23A10.59 10.59 0 0 1 1532-8.43a10.57 10.57 0 0 1-10.56-10.28v78.19A10.56 10.56 0 0 1 1532 49.42zm-21.15 92.94a10.58 10.58 0 0 0 10.58-10.58V-18.41A10.58 10.58 0 0 0 1510.85-29a10.58 10.58 0 0 0-10.58 10.58v150.2a10.58 10.58 0 0 0 10.58 10.58zM1384.44-.84a10.58 10.58 0 0 0-10.58 10.58v32.67a10.58 10.58 0 1 0 21.16 0V9.74a10.58 10.58 0 0 0-10.58-10.58zm42.32-33.06a10.58 10.58 0 0 0-10.58 10.58v95.58a10.58 10.58 0 0 0 21.16 0v-95.58a10.58 10.58 0 0 0-10.58-10.58zm21.16 53.26a10.56 10.56 0 0 1-10.55-10.1v58.39a10.57 10.57 0 0 1 21.13 0V9.26a10.58 10.58 0 0 1-10.58 10.1z"/><path class="cls-4" d="M1469.08-.84a10.58 10.58 0 0 0-10.58 10.58v166.81a10.58 10.58 0 0 0 21.16 0V9.74a10.58 10.58 0 0 0-10.58-10.58zm21.16 20.2a10.56 10.56 0 0 1-10.55-10.1v78.23a10.57 10.57 0 0 1 21.13 0V9.26a10.58 10.58 0 0 1-10.58 10.1z"/><path class="cls-4" d="M1511.4-28.8a10.58 10.58 0 0 0-10.58 10.58V87.19a10.58 10.58 0 1 0 21.16 0V-18.22a10.58 10.58 0 0 0-10.58-10.58zm-337.72 98.42A10.58 10.58 0 0 0 1184.26 59v-77.41A10.58 10.58 0 0 0 1173.68-29a10.58 10.58 0 0 0-10.58 10.58V59a10.58 10.58 0 0 0 10.58 10.62zm-42.32 33.06a10.58 10.58 0 0 0 10.58-10.58V-18.41A10.58 10.58 0 0 0 1131.36-29a10.58 10.58 0 0 0-10.58 10.58V92.1a10.58 10.58 0 0 0 10.58 10.58zm-21.16-53.26a10.57 10.57 0 0 1 10.56 10.1V1.13a10.57 10.57 0 0 1-10.56 10.27 10.56 10.56 0 0 1-10.56-10.27v58.35a10.56 10.56 0 0 1 10.56-10.06zm-21.2 20.2A10.58 10.58 0 0 0 1099.62 59V-78A10.57 10.57 0 0 0 1089-88.5a10.58 10.58 0 0 0-10.58 10.58V59A10.58 10.58 0 0 0 1089 69.62z"/><path class="cls-4" d="M1067.88 49.42a10.57 10.57 0 0 1 10.56 10.1v-78.23a10.58 10.58 0 0 1-10.57 10.28 10.57 10.57 0 0 1-10.56-10.28v78.19a10.57 10.57 0 0 1 10.57-10.06zm-21.16 92.94a10.58 10.58 0 0 0 10.58-10.58V-18.41A10.58 10.58 0 0 0 1046.72-29a10.58 10.58 0 0 0-10.58 10.58v150.2a10.58 10.58 0 0 0 10.58 10.58z"/><circle class="cls-4" cx="1088.94" cy="102.69" r="10.66"/><path class="cls-4" d="M1278.83 64.38A10.66 10.66 0 1 0 1289.5 75a10.66 10.66 0 0 0-10.67-10.62zM919.8-.84a10.58 10.58 0 0 0-10.58 10.58v32.67a10.58 10.58 0 0 0 21.16 0V9.74A10.58 10.58 0 0 0 919.8-.84zm42.32-33.06a10.58 10.58 0 0 0-10.58 10.58v95.58a10.58 10.58 0 1 0 21.15 0v-95.58a10.58 10.58 0 0 0-10.57-10.58z"/><path class="cls-4" d="M983.27 19.36a10.56 10.56 0 0 1-10.55-10.1v58.39a10.57 10.57 0 0 1 21.13 0V9.26a10.58 10.58 0 0 1-10.58 10.1z"/><path class="cls-4" d="M1004.43-.84a10.58 10.58 0 0 0-10.58 10.58v166.81a10.58 10.58 0 0 0 21.16 0V9.74a10.58 10.58 0 0 0-10.58-10.58z"/><path class="cls-4" d="M1025.59 19.36A10.56 10.56 0 0 1 1015 9.26v78.23a10.57 10.57 0 0 1 21.13 0V9.26a10.58 10.58 0 0 1-10.54 10.1zm21.16-48.16a10.58 10.58 0 0 0-10.58 10.58V87.19a10.58 10.58 0 1 0 21.16 0V-18.22a10.58 10.58 0 0 0-10.58-10.58z"/><path class="cls-11" d="M1785.67-10.75a10.5 10.5 0 0 0-10.5 10.5V83a10.5 10.5 0 0 0 21 0V-.25a10.51 10.51 0 0 0-10.5-10.5zm-464.38 0a10.5 10.5 0 0 0-10.5 10.5V83a10.5 10.5 0 0 0 21 0V-.25a10.5 10.5 0 0 0-10.5-10.5zm-464.88 0a10.5 10.5 0 0 0-10.5 10.5V83a10.5 10.5 0 0 0 21 0V-.25a10.5 10.5 0 0 0-10.5-10.5z"/><path class="cls-4" d="M951.54-85.29h190.24V34.04H951.54zm464.64-.11h190.42V33.93h-190.42zM666.93-14.68a10.5 10.5 0 0 0-10.49 10.5V92a10.5 10.5 0 1 0 21 0V-4.18a10.5 10.5 0 0 0-10.51-10.5zm1224-19a10.49 10.49 0 0 0-10.49 10.49V73a10.5 10.5 0 1 0 21 0v-96.19a10.5 10.5 0 0 0-10.51-10.49zM814.54-113A10.58 10.58 0 0 0 804-102.45v137a10.58 10.58 0 0 0 21.16 0v-137A10.57 10.57 0 0 0 814.54-113zm42.32 35a10.58 10.58 0 0 0-10.58 10.6V82.78a10.58 10.58 0 0 0 21.16 0V-67.4A10.58 10.58 0 0 0 856.86-78zM624.4 69.62A10.58 10.58 0 0 0 635 59V-78a10.58 10.58 0 0 0-10.6-10.5 10.57 10.57 0 0 0-10.58 10.58V59a10.58 10.58 0 0 0 10.58 10.62zm-21.16-20.2a10.56 10.56 0 0 1 10.55 10.1v-78.23a10.57 10.57 0 0 1-10.55 10.28 10.58 10.58 0 0 1-10.57-10.28v78.19a10.58 10.58 0 0 1 10.57-10.06zm-21.16 92.94a10.58 10.58 0 0 0 10.58-10.58V-18.41A10.58 10.58 0 0 0 582.08-29a10.58 10.58 0 0 0-10.58 10.59v150.19a10.58 10.58 0 0 0 10.58 10.58z"/><path class="cls-4" d="M1890.89-33.9a10.58 10.58 0 0 0-10.58 10.58v95.58a10.58 10.58 0 1 0 21.16 0v-95.58a10.58 10.58 0 0 0-10.58-10.58zm21.16 53.26a10.56 10.56 0 0 1-10.55-10.1v58.39a10.57 10.57 0 0 1 21.13 0V9.26a10.58 10.58 0 0 1-10.58 10.1zm21.16-20.2a10.58 10.58 0 0 0-10.58 10.58v166.81a10.58 10.58 0 0 0 21.16 0V9.74a10.58 10.58 0 0 0-10.58-10.58zm21.16 20.2a10.58 10.58 0 0 1-10.56-10.1v78.23a10.57 10.57 0 0 1 21.13 0V9.26a10.58 10.58 0 0 1-10.57 10.1zm21.16-48.16A10.58 10.58 0 0 0 1965-18.22V87.19a10.58 10.58 0 0 0 21.16 0V-18.22a10.58 10.58 0 0 0-10.63-10.58z"/></g></svg>